<?xml version="1.0" encoding="utf-8"?>
<!-- Generator: Adobe Illustrator 18.1.1, SVG Export Plug-In . SVG Version: 6.00 Build 0)  -->
<svg version="1.1" id="Layer_1" xmlns="http://www.w3.org/2000/svg" xmlns:xlink="http://www.w3.org/1999/xlink" x="0px" y="0px"
	 viewBox="24 24 52 52" enable-background="new 24 24 52 52" xml:space="preserve">
<g>
	<path fill="#00008B" d="M74.8,47c-0.1-0.5-0.1-1-0.2-1.5l-0.6,1L74.8,47z"/>
	<path fill="#00008B" d="M74,49.2L72.8,48l-1.2,1.2l0.2-1.7l-1.7-0.1l1.5-0.9l-1-1.4l1.6,0.6l0.5-1.6l0.5,1.6l1.2-0.5
		c-0.9-4.4-2.9-8.5-5.8-11.7c-2-2.3-4.4-4.2-7.1-5.6v0c-0.8-0.4-1.6-0.8-2.4-1.1c-2.9-1.1-6-1.8-9.2-1.8v2l-7.4,5.4H50V34v4.8v1.6
		h-7.4l7.4,5.4v0.9v1.8h-3.7l-10.2-7.4v7.4H35h-3.3h-1.1v-7.4l-5,3.6C25.2,46.4,25,48.2,25,50c0,4.3,1.1,8.3,3,11.9l2.9-1.7l-2-3
		l3.4,1.3l1.1-3.4l1.1,3.4l3.4-1.3l-2,3l3.1,1.8l-3.6,0.3l0.5,3.6l-2.5-2.6l-2.5,2.6l0.5-3.6L28.1,62c0.2,0.3,0.3,0.6,0.5,0.9
		c2.4,4,5.9,7.2,10,9.4v0c0.7,0.4,1.4,0.7,2.2,1c2.9,1.1,6,1.8,9.2,1.8s6.4-0.6,9.2-1.8c0.8-0.3,1.6-0.7,2.4-1.1v0
		c4.1-2.1,7.5-5.3,9.8-9.3C73.7,59.1,75,54.7,75,50c0-0.9,0-1.7-0.1-2.6l-1.1,0.1L74,49.2z M56,51.7l-1.2-1.2l-1.2,1.2l0.2-1.7
		l-1.7-0.1l1.5-0.9l-1-1.4l1.6,0.6l0.5-1.6l0.5,1.6l1.6-0.6L56,49l1.5,0.9L55.8,50L56,51.7z M62.2,37.3l1.6,0.6l0.5-1.6l0.5,1.6
		l1.6-0.6l-1,1.4l1.5,0.9l-1.7,0.1l0.2,1.7l-1.2-1.2l-1.2,1.2l0.2-1.7l-1.7-0.1l1.5-0.9L62.2,37.3z M65.5,66.8l-1.2-1.2l-1.2,1.2
		l0.2-1.7l-1.7-0.1l1.5-0.9l-1-1.4l1.6,0.6l0.5-1.6l0.5,1.6l1.6-0.6l-1,1.4l1.5,0.9l-1.7,0.1L65.5,66.8z M69.1,54.5l-0.9-0.6
		l-0.9,0.6l0.3-1.1l-0.8-0.7l1.1-0.1l0.4-1l0.4,1l1.1,0.1l-0.8,0.7L69.1,54.5z"/>
	<path fill="#00008B" d="M44.4,25.6c-1.3,0.3-2.5,0.7-3.7,1.1c-0.7,0.3-1.5,0.6-2.2,1c-0.8,0.4-1.7,0.9-2.5,1.4v2.5L44.4,25.6z"/>
	<path fill="#FFFFFF" d="M30.9,65.9l2.5-2.6l2.5,2.6l-0.5-3.6l3.6-0.3l-3.1-1.8l2-3l-3.4,1.3L33.3,55l-1.1,3.4l-3.4-1.3l2,3L28,61.9
		c0,0.1,0.1,0.1,0.1,0.2l3.3,0.3L30.9,65.9z"/>
	<polygon fill="#FFFFFF" points="65.5,64.1 66.5,62.6 64.9,63.2 64.3,61.6 63.8,63.2 62.2,62.6 63.2,64.1 61.7,64.9 63.4,65.1 
		63.2,66.8 64.3,65.5 65.5,66.8 65.3,65.1 67,64.9 	"/>
	<polygon fill="#FFFFFF" points="56,49 57,47.6 55.4,48.2 54.8,46.6 54.3,48.2 52.7,47.6 53.7,49 52.2,49.9 53.9,50 53.7,51.7 
		54.8,50.5 56,51.7 55.8,50 57.5,49.9 	"/>
	<polygon fill="#FFFFFF" points="63.4,39.7 63.2,41.4 64.3,40.2 65.5,41.4 65.3,39.7 67,39.6 65.5,38.7 66.5,37.3 64.9,37.9 
		64.3,36.3 63.8,37.9 62.2,37.3 63.2,38.7 61.7,39.6 	"/>
	<path fill="#FFFFFF" d="M74,46.5l0.6-1c0-0.1,0-0.2-0.1-0.3l-1.2,0.5L72.8,44l-0.5,1.6l-1.6-0.6l1,1.4l-1.5,0.9l1.7,0.1l-0.2,1.7
		l1.2-1.2l1.2,1.2l-0.2-1.7l1.1-0.1c0-0.1,0-0.3,0-0.4L74,46.5z"/>
	<polygon fill="#FFFFFF" points="68.6,52.7 68.2,51.7 67.7,52.7 66.6,52.8 67.5,53.5 67.2,54.5 68.2,53.9 69.1,54.5 68.8,53.5 
		69.7,52.8 	"/>
	<path fill="#FFFFFF" d="M30.6,48.5h1.1v-8.2v-1.5h-4c-0.4,0.8-0.8,1.6-1.1,2.5l1.2-0.9h2.5l-4.4,3.2c-0.1,0.4-0.2,0.7-0.3,1.1
		l5-3.6C30.6,41.1,30.6,48.5,30.6,48.5z"/>
	<path fill="#FFFFFF" d="M31.7,33c-0.1,0.1-0.3,0.3-0.4,0.5c-0.1,0.2-0.3,0.3-0.4,0.5h0.8C31.7,33.9,31.7,33,31.7,33z"/>
	<polygon fill="#FFFFFF" points="35,38.8 35,40.3 35,48.5 36.1,48.5 36.1,41.1 46.3,48.5 50,48.5 38.9,40.4 41.4,40.4 50,46.7 
		50,45.8 42.6,40.4 50,40.4 50,38.8 40.4,38.8 	"/>
	<path fill="#FFFFFF" d="M35,32.5V34h5.4H50v-1.6h-7.4L50,27v-2c-0.3,0-0.7,0-1,0l-10.1,7.3h-2.5l9.7-7c-0.6,0.1-1.1,0.2-1.7,0.3
		l-8.3,6v-2.5c-0.4,0.3-0.8,0.5-1.1,0.8V32.5z"/>
	<path fill="#FF0000" d="M35,34v-1.5V30c-1.2,0.9-2.3,1.9-3.3,3v1h-0.8c-1.2,1.5-2.3,3.1-3.2,4.8h4v1.5v8.2H35v-8.2v-1.5h5.4H50V34
		h-9.6H35z"/>
	<path fill="#FF0000" d="M36.4,32.3h2.5L49,25c-1,0-1.9,0.1-2.9,0.3L36.4,32.3z"/>
	<polygon fill="#FF0000" points="38.9,40.4 50,48.5 50,46.7 41.4,40.4 	"/>
	<path fill="#FF0000" d="M30.3,40.4h-2.5l-1.2,0.9c-0.3,0.8-0.5,1.5-0.7,2.3L30.3,40.4z"/>
</g>
</svg>
