<?xml version="1.0" encoding="utf-8"?>
<!-- Generator: Adobe Illustrator 18.1.1, SVG Export Plug-In . SVG Version: 6.00 Build 0)  -->
<svg version="1.1" id="Layer_1" xmlns="http://www.w3.org/2000/svg" xmlns:xlink="http://www.w3.org/1999/xlink" x="0px" y="0px"
	 viewBox="24 24 52 52" enable-background="new 24 24 52 52" xml:space="preserve">
<g>
	<path fill="#009B3A" d="M74.8,46.9C73.3,34.6,62.8,25,50,25c-12.8,0-23.3,9.6-24.8,21.9L50,31.1L74.8,46.9z"/>
	<path fill="#009B3A" d="M25.2,53.1C26.7,65.4,37.2,75,50,75c12.8,0,23.3-9.6,24.8-21.9L50,68.9L25.2,53.1z"/>
	<path fill="#FEDF00" d="M74.8,46.9L50,31.1L25.2,46.9c-0.1,1-0.2,2-0.2,3.1s0.1,2.1,0.2,3.1L50,68.9l24.8-15.8c0.1-1,0.2-2,0.2-3.1
		S74.9,47.9,74.8,46.9z"/>
	<circle fill="#002776" cx="50" cy="50" r="12.5"/>
	<path fill="#FFFFFF" d="M42.9,44.6c-1.5,0-2.9,0.1-4.3,0.3c-0.3,0.6-0.5,1.3-0.7,1.9c1.6-0.3,3.3-0.4,4.9-0.4
		c7.3,0,14,2.8,19.1,7.3c0.2-0.6,0.3-1.3,0.4-2C57.1,47.3,50.3,44.6,42.9,44.6z"/>
	<g>
		<g transform="rotate(-7)">
			<path fill="#009B3A" d="M459.8-1424.3c0-0.3-0.3-0.6-0.6-0.5c-0.3,0-0.5,0.3-0.5,0.7c0,0.3,0.3,0.6,0.6,0.5
				C459.6-1423.7,459.8-1424,459.8-1424.3z M459.3-1424.6c0.4,0,0.4,0.7,0,0.7C458.9-1423.9,458.9-1424.6,459.3-1424.6z"/>
		</g>
		<g>
			<g transform="rotate(2)">
				<path id="E" fill="#009B3A" d="M463.3-1423.9l1.1,0l0-0.2l-0.9,0l0-0.3l0.7,0l0-0.2l-0.7,0l0-0.2l0.8,0l0-0.2l-1,0L463.3-1423.9
					z"/>
			</g>
			<g transform="rotate(5)">
				<path id="M" fill="#009B3A" d="M464.8-1423.8l0.2,0l0.1-0.8l0.2,0.8l0.2,0l0.3-0.8l-0.1,0.8l0.2,0l0.1-1.2l-0.3,0l-0.3,0.8
					l-0.2-0.8l-0.3,0L464.8-1423.8z"/>
			</g>
			<g transform="rotate(9.75)">
				<path id="e" fill="#009B3A" d="M467.3-1423.5l0.9,0.2l0-0.2l-0.7-0.1l0-0.3l0.6,0.1l0-0.2l-0.6-0.1l0-0.2l0.7,0.1l0-0.2
					l-0.9-0.1L467.3-1423.5z"/>
			</g>
			<g>
				<g id="R_1_">
					<g transform="rotate(17.5)">
						<path id="P_2_" fill="#009B3A" d="M472.3-1423.2 M471-1422.7"/>
					</g>
				</g>
				<g>
					<g transform="translate(-420,1470)">
						<g transform="rotate(29.5)">
							<path id="E_1_" fill="#009B3A" d="M476.6-1420.4l0.9,0.5l0.1-0.2l-0.8-0.4l0.2-0.3l0.6,0.3l0.1-0.2l-0.6-0.3l0.1-0.2l0.7,0.4
								l0.1-0.2l-0.9-0.5L476.6-1420.4z"/>
						</g>
						<g transform="rotate(32.5)">
							<path id="S" fill="#009B3A" d="M478.3-1419.8c-0.1,0.1,0,0.2,0.1,0.3c0.1,0.1,0.2,0.1,0.3,0c0.1-0.2-0.6-0.5-0.4-0.9
								c0.2-0.3,0.5-0.1,0.7,0c0.1,0.1,0.3,0.3,0.2,0.5l-0.2-0.1c0.1-0.1,0-0.2-0.1-0.3c-0.1-0.1-0.2-0.1-0.3,0
								c-0.1,0.2,0.6,0.5,0.4,0.8c-0.2,0.3-0.5,0.1-0.7,0c-0.2-0.1-0.4-0.4-0.3-0.6L478.3-1419.8z"/>
						</g>
						<g transform="rotate(35.5)">
							<path id="S_1_" fill="#009B3A" d="M479.6-1419c-0.1,0.1,0,0.2,0.1,0.3c0.1,0.1,0.2,0.1,0.3,0c0.1-0.2-0.6-0.5-0.3-0.9
								c0.2-0.3,0.5,0,0.7,0c0.1,0.1,0.3,0.3,0.1,0.5l-0.2-0.2c0.1-0.1,0-0.2-0.1-0.3c-0.1-0.1-0.2-0.1-0.3,0
								c-0.1,0.2,0.6,0.5,0.4,0.9c-0.2,0.3-0.5,0.1-0.7,0c-0.2-0.1-0.4-0.4-0.2-0.6L479.6-1419z"/>
						</g>
					</g>
					<g transform="rotate(-7)">
						<path fill="#009B3A" d="M481.7-1417.8c0.2-0.3,0.1-0.6-0.2-0.8c-0.3-0.1-0.6,0-0.7,0.3c-0.2,0.3-0.1,0.6,0.2,0.8
							S481.6-1417.5,481.7-1417.8z M481.5-1418.3c0.3,0.2-0.1,0.8-0.4,0.6C480.7-1418,481.1-1418.6,481.5-1418.3z"/>
					</g>
				</g>
			</g>
			<path fill="#009B3A" d="M462.8-1424.8c-0.1-0.2-0.4-0.2-0.4-0.2l-0.6,0l0,1.2c0,0,0.5,0,0.6,0c0.1,0,0.3-0.1,0.4-0.2
				c0.1-0.1,0.1-0.3,0.1-0.4S462.9-1424.7,462.8-1424.8z M462.3-1424.1c-0.1,0-0.3,0-0.3,0s0-0.6,0-0.7c0.2,0,0.3,0,0.4,0
				c0.2,0,0.3,0.1,0.3,0.2c0,0.1,0,0.1,0,0.2c0,0.1,0,0.2-0.1,0.2C462.4-1424.1,462.4-1424.1,462.3-1424.1z"/>
			<path fill="#009B3A" d="M461.2-1424.3c0,0,0.1-0.1,0.2-0.3s-0.1-0.3-0.1-0.3c0,0-0.1-0.1-0.2-0.1s-0.7,0-0.7,0l0.1,1.2l0.2,0
				l0-0.4l0.4,0l0.1,0c0,0,0.1,0.2,0.1,0.3c0,0.1,0,0.1,0,0.1h0.2c0,0,0-0.2-0.1-0.3C461.2-1424.3,461.2-1424.3,461.2-1424.3z
				 M461-1424.5c0,0-0.2,0-0.2,0l-0.4,0c0,0,0-0.2,0-0.3c0.1,0,0.3,0,0.4,0c0.1,0,0.1,0,0.1,0s0,0,0.1,0c0,0,0,0,0,0.1
				C461.1-1424.6,461-1424.5,461-1424.5z"/>
		</g>
		<g transform="rotate(-7)">
			<path fill="#009B3A" d="M473.7-1422.5c0-0.3-0.2-0.6-0.4-0.7c-0.3,0-0.6,0.2-0.6,0.5c0,0.3,0.2,0.6,0.4,0.7
				C473.4-1422,473.7-1422.2,473.7-1422.5z M473.3-1422.9c0.4,0.1,0.2,0.8-0.2,0.7C472.7-1422.3,472.9-1423,473.3-1422.9z"/>
		</g>
		<path fill="#009B3A" d="M472-1423c0,0,0.2-0.1,0.2-0.2c0.1-0.1,0-0.3,0-0.3c0,0-0.1-0.2-0.2-0.2c-0.1,0-0.7-0.2-0.7-0.2l-0.3,1.1
			l0.2,0.1l0.1-0.4l0.4,0.1l0.1,0c0,0,0,0.2,0,0.3c0,0.1,0,0.1,0,0.1l0.2,0.1c0,0,0.1-0.2,0.1-0.3C472.1-1422.9,472-1423,472-1423z
			 M472-1423.2c-0.1,0-0.2,0-0.2,0l-0.4-0.1c0,0,0.1-0.2,0.1-0.3c0.1,0,0.3,0.1,0.3,0.1c0.1,0,0.1,0,0.1,0s0,0,0.1,0.1
			c0,0,0,0.1,0,0.1C472-1423.2,472-1423.2,472-1423.2z"/>
		<path fill="#009B3A" d="M476.3-1421.2c0,0,0.2,0,0.2-0.2c0.1-0.1,0.1-0.3,0-0.3c0,0-0.1-0.2-0.2-0.2s-0.7-0.3-0.7-0.3l-0.4,1.1
			l0.2,0.1l0.2-0.4l0.4,0.1l0.1,0c0,0,0,0.2,0,0.3c0,0.1,0,0.1,0,0.1l0.2,0.1c0,0,0.1-0.2,0.1-0.3
			C476.4-1421.2,476.3-1421.2,476.3-1421.2z M476.3-1421.4c-0.1,0-0.2,0-0.2,0l-0.3-0.1c0,0,0.1-0.2,0.1-0.3c0.1,0,0.3,0.1,0.3,0.1
			c0.1,0,0.1,0,0.1,0s0,0,0.1,0.1c0,0,0,0.1,0,0.1S476.3-1421.4,476.3-1421.4z"/>
		<path fill="#009B3A" d="M470.6-1423.4c0,0,0.2-0.1,0.2-0.2c0.1-0.1,0-0.3,0-0.3c0,0-0.1-0.2-0.2-0.2c-0.1,0-0.7-0.2-0.7-0.2
			l-0.3,1.2l0.2,0.1l0.1-0.4l0.4,0.1l0.1,0 M470.5-1423.6c-0.1,0-0.2,0-0.2,0l-0.4-0.1c0,0,0-0.2,0.1-0.3c0.1,0,0.3,0.1,0.3,0.1
			c0.1,0,0.1,0,0.1,0s0,0,0.1,0.1c0,0,0,0.1,0,0.1C470.6-1423.6,470.5-1423.6,470.5-1423.6z"/>
		<g transform="rotate(-7)">
			<path fill="#009B3A" d="M475-1421.9C475-1421.9,474.9-1421.9,475-1421.9c-0.2,0.1-0.4,0.3-0.6,0.1c-0.3-0.2,0.1-0.8,0.4-0.6
				c0.1,0.1,0.1,0.1,0.1,0.2c0.1,0,0.1,0,0.2,0.1c0,0,0,0,0.1,0c0-0.2-0.1-0.4-0.3-0.5c-0.3-0.1-0.6,0-0.7,0.3
				c-0.2,0.3-0.1,0.6,0.2,0.8c0.3,0.1,0.6,0,0.7-0.3c0,0,0,0,0,0C475.1-1421.8,475-1421.8,475-1421.9z"/>
		</g>
	</g>
	
		<rect x="54.6" y="48.1" transform="matrix(-0.9171 -0.3987 0.3987 -0.9171 85.9548 114.2513)" fill="#009B3A" width="0.5" height="0.2"/>
	
		<rect x="54.8" y="48.1" transform="matrix(-0.9171 -0.3987 0.3987 -0.9171 85.9375 114.7379)" fill="#009B3A" width="0.2" height="0.6"/>
</g>
<g>
	<polygon fill="#FFFFFF" points="40.3,47.6 39.9,47.6 39.8,47.2 39.7,47.6 39.3,47.6 39.6,47.8 39.5,48.2 39.8,48 40.1,48.2 
		40,47.8 40.3,47.6 	"/>
	<polygon fill="#FFFFFF" points="41,52.8 40.9,52.5 40.8,52.8 40.4,52.8 40.7,53.1 40.6,53.4 40.9,53.2 41.2,53.4 41.1,53.1 
		41.4,52.8 	"/>
	<polygon fill="#FFFFFF" points="39.5,54 39.4,53.7 39.3,54 38.9,54 39.2,54.2 39.1,54.5 39.4,54.3 39.6,54.5 39.5,54.2 39.8,54 	
		"/>
	<polygon fill="#FFFFFF" points="50.1,55.5 50,55.1 49.9,55.5 49.5,55.5 49.8,55.7 49.7,56.1 50,55.9 50.3,56.1 50.2,55.7 
		50.5,55.5 	"/>
	<polygon fill="#FFFFFF" points="45.1,56.4 45,56 44.9,56.4 44.5,56.4 44.8,56.6 44.7,57 45,56.8 45.3,57 45.2,56.6 45.5,56.4 	"/>
	<polygon fill="#FFFFFF" points="58.6,54.4 58.4,54.8 58.8,54.6 59.1,54.8 59,54.4 59.3,54.2 58.9,54.2 58.8,53.8 58.6,54.2 
		58.2,54.2 	"/>
	<polygon fill="#FFFFFF" points="53.8,58.3 53.7,58 53.6,58.3 53.3,58.3 53.6,58.5 53.5,58.8 53.7,58.6 54,58.8 53.9,58.5 
		54.2,58.3 	"/>
	<polygon fill="#FFFFFF" points="56.2,57.6 56.1,58 55.8,58 56.1,58.1 56,58.5 56.2,58.3 56.5,58.5 56.4,58.1 56.7,58 56.3,58 	"/>
	<polygon fill="#FFFFFF" points="58.6,56.3 58.5,56 58.4,56.3 58.1,56.3 58.4,56.5 58.3,56.9 58.5,56.7 58.8,56.9 58.7,56.5 
		58.9,56.3 	"/>
	<polygon fill="#FFFFFF" points="59.4,55.4 59.3,55.1 59.2,55.4 58.8,55.4 59.1,55.6 59,55.9 59.3,55.7 59.5,55.9 59.4,55.6 
		59.7,55.4 	"/>
	<polygon fill="#FFFFFF" points="51.5,53 51.4,52.7 51.3,53 51,53 51.3,53.2 51.2,53.5 51.4,53.3 51.7,53.5 51.6,53.2 51.9,53 	"/>
	<polygon fill="#FFFFFF" points="49.8,52.1 49.7,52.4 50,52.2 50.3,52.4 50.2,52.1 50.4,51.9 50.1,51.9 50,51.6 49.9,51.9 
		49.6,51.9 	"/>
	<polygon fill="#FFFFFF" points="54,46 53.9,45.6 53.8,46 53.5,46 53.8,46.2 53.7,46.5 53.9,46.3 54.2,46.5 54.1,46.2 54.3,46 	"/>
	<polygon fill="#FFFFFF" points="45.2,50.1 45.1,50.4 44.8,50.4 45.1,50.6 45,50.9 45.2,50.7 45.5,50.9 45.4,50.6 45.7,50.4 
		45.3,50.4 	"/>
	<polygon fill="#FFFFFF" points="60.6,54.6 60.9,54.4 60.6,54.4 60.5,54.1 60.4,54.4 60.2,54.4 60.4,54.6 60.3,54.8 60.5,54.7 
		60.7,54.8 	"/>
	<polygon fill="#FFFFFF" points="53.4,49.5 53.6,49.7 53.6,49.4 53.8,49.3 53.5,49.3 53.4,49 53.3,49.3 53.1,49.3 53.3,49.4 
		53.2,49.7 	"/>
	<polygon fill="#FFFFFF" points="56.1,56.9 56,57.2 56.2,57 56.4,57.2 56.3,56.9 56.6,56.8 56.3,56.8 56.2,56.5 56.1,56.8 
		55.9,56.8 	"/>
	<polygon fill="#FFFFFF" points="57.6,57 57.5,56.7 57.4,57 57.2,57 57.4,57.2 57.3,57.4 57.5,57.3 57.7,57.4 57.6,57.2 57.9,57 	
		"/>
	<polygon fill="#FFFFFF" points="56.4,59.3 56.3,59 56.2,59.3 55.9,59.3 56.1,59.4 56.1,59.7 56.3,59.5 56.5,59.7 56.4,59.4 
		56.6,59.3 	"/>
	<polygon fill="#FFFFFF" points="54.9,57.2 54.8,56.9 54.7,57.2 54.5,57.2 54.7,57.3 54.6,57.6 54.8,57.4 55,57.6 55,57.3 
		55.2,57.2 	"/>
	<polygon fill="#FFFFFF" points="52.8,56.9 52.8,56.6 52.7,56.9 52.4,56.9 52.6,57.1 52.5,57.3 52.8,57.2 53,57.3 52.9,57.1 
		53.1,56.9 	"/>
	<polygon fill="#FFFFFF" points="43.6,54.1 43.5,53.8 43.4,54.1 43.1,54.1 43.4,54.3 43.3,54.5 43.5,54.4 43.8,54.5 43.7,54.3 
		43.9,54.1 	"/>
	<polygon fill="#FFFFFF" points="43.2,55.4 43.1,55.1 43.1,55.4 42.8,55.4 43,55.6 42.9,55.8 43.1,55.7 43.4,55.8 43.3,55.6 
		43.5,55.4 	"/>
	<polygon fill="#FFFFFF" points="48.8,53 48.7,52.8 48.7,53 48.4,53 48.6,53.2 48.5,53.5 48.7,53.3 49,53.5 48.9,53.2 49.1,53 	"/>
	<polygon fill="#FFFFFF" points="42.2,52.2 42.1,52 42.1,52.2 41.9,52.2 42,52.3 42,52.4 42.1,52.3 42.2,52.4 42.2,52.3 42.3,52.2 	
		"/>
	<polygon fill="#FFFFFF" points="49.4,54.1 49.5,54.2 49.4,54 49.6,53.9 49.4,53.9 49.4,53.7 49.3,53.9 49.1,53.9 49.3,54 
		49.2,54.2 	"/>
	<polygon fill="#FFFFFF" points="50,59.7 50,59.6 50,59.7 49.8,59.7 49.9,59.8 49.9,59.9 50,59.8 50.1,59.9 50.1,59.8 50.2,59.7 	
		"/>
</g>
</svg>
