<?xml version="1.0" encoding="utf-8"?>
<!-- Generator: Adobe Illustrator 18.1.1, SVG Export Plug-In . SVG Version: 6.00 Build 0)  -->
<svg version="1.1" id="Layer_1" xmlns="http://www.w3.org/2000/svg" xmlns:xlink="http://www.w3.org/1999/xlink" x="0px" y="0px"
	 viewBox="24 24 52 52" enable-background="new 24 24 52 52" xml:space="preserve">
<g>
	<path fill="#FF0000" d="M71.4,62.9C73.7,59.1,75,54.7,75,50c0-6.3-2.4-12.1-6.3-16.5c-0.9-1-1.9-2-3-2.9v38.8
		C68,67.6,69.9,65.4,71.4,62.9z"/>
	<path fill="#FF0000" d="M31.3,33.5C27.4,37.9,25,43.7,25,50c0,4.7,1.3,9.1,3.6,12.9c1.5,2.6,3.5,4.8,5.9,6.7V30.4
		C33.3,31.4,32.2,32.4,31.3,33.5z"/>
	<path fill="#FFFFFF" d="M50,25c-3.3,0-6.4,0.6-9.2,1.8c-2.3,0.9-4.4,2.2-6.3,3.7v39.1c1.9,1.5,4,2.8,6.3,3.7c2.9,1.1,6,1.8,9.2,1.8
		s6.4-0.6,9.2-1.8c2.4-0.9,4.6-2.2,6.5-3.8V30.6c-1.9-1.6-4.1-2.9-6.5-3.8C56.4,25.6,53.3,25,50,25z"/>
	<path fill="#FF0000" d="M50.1,37.3l-2.1,4c-0.2,0.4-0.7,0.4-1.1,0.2l-1.5-0.8l1.2,6.1c0.2,1.1-0.5,1.1-0.9,0.6l-2.7-3l-0.4,1.5
		c-0.1,0.2-0.3,0.4-0.6,0.4l-3.4-0.7l0.9,3.3c0.2,0.7,0.3,1-0.2,1.2l-1.2,0.6l5.9,4.8c0.2,0.2,0.4,0.5,0.3,0.8l-0.5,1.7
		c2-0.2,3.8-0.6,5.9-0.8c0.2,0,0.5,0.3,0.5,0.5l-0.3,6.2h1l-0.2-6.2c0-0.2,0.3-0.5,0.5-0.5c2,0.2,3.8,0.6,5.9,0.8l-0.5-1.7
		c-0.1-0.3,0-0.6,0.3-0.8l5.9-4.8L61.1,50c-0.5-0.2-0.4-0.5-0.2-1.2l0.9-3.3l-3.4,0.7c-0.3,0.1-0.6-0.2-0.6-0.4l-0.4-1.5l-2.7,3
		c-0.4,0.5-1.2,0.5-0.9-0.6l1.2-6.1l-1.5,0.8c-0.4,0.2-0.9,0.3-1.1-0.2"/>
</g>
</svg>
