<?xml version="1.0" encoding="utf-8"?>
<!-- Generator: Adobe Illustrator 18.1.1, SVG Export Plug-In . SVG Version: 6.00 Build 0)  -->
<svg version="1.1" id="Layer_1" xmlns="http://www.w3.org/2000/svg" xmlns:xlink="http://www.w3.org/1999/xlink" x="0px" y="0px"
	 viewBox="24 24 52 52" enable-background="new 24 24 52 52" xml:space="preserve">
<path fill="#FF0000" d="M68.7,33.5c-2.6-2.9-5.8-5.2-9.5-6.7c-2.9-1.1-6-1.8-9.2-1.8s-6.4,0.6-9.2,1.8c-3.7,1.5-6.9,3.8-9.5,6.7
	C27.4,37.9,25,43.7,25,50c0,4.7,1.3,9.1,3.6,12.9c2.8,4.7,7.1,8.3,12.2,10.4c2.9,1.1,6,1.8,9.2,1.8s6.4-0.6,9.2-1.8
	c5.1-2,9.4-5.7,12.2-10.4C73.7,59.1,75,54.7,75,50C75,43.7,72.6,37.9,68.7,33.5z"/>
<polygon fill="#FFFFFF" points="64.5,45.6 54.4,45.6 54.4,35.5 45.7,35.5 45.7,45.6 35.5,45.6 35.5,54.4 45.7,54.4 45.7,64.5 
	54.4,64.5 54.4,54.4 64.5,54.4 "/>
</svg>
