<?xml version="1.0" encoding="utf-8"?>
<!-- Generator: Adobe Illustrator 18.1.1, SVG Export Plug-In . SVG Version: 6.00 Build 0)  -->
<svg version="1.1" id="Layer_1" xmlns="http://www.w3.org/2000/svg" xmlns:xlink="http://www.w3.org/1999/xlink" x="0px" y="0px"
	 viewBox="24 24 52 52" enable-background="new 24 24 52 52" xml:space="preserve">
<g>
	<g>
		<path fill="#D52B1E" d="M25.1,52.5c0.4,3.8,1.6,7.3,3.5,10.4c2.8,4.7,7.1,8.3,12.2,10.4c2.9,1.1,6,1.8,9.2,1.8s6.4-0.6,9.2-1.8
			c5.1-2,9.4-5.7,12.2-10.4c1.9-3.1,3.1-6.6,3.5-10.4H50.8H25.1z"/>
		<path fill="#FFFFFF" d="M74.9,52.5C75,51.7,75,50.8,75,50c0-6.3-2.4-12.1-6.3-16.5c-2.6-2.9-5.8-5.2-9.5-6.7
			c-2.6-1.1-5.5-1.7-8.5-1.8v27.5H74.9z"/>
		<path fill="#0039A6" d="M40.8,26.8c-3.7,1.5-6.9,3.8-9.5,6.7C27.4,37.9,25,43.7,25,50c0,0.8,0,1.7,0.1,2.5h25.7V25
			c-0.3,0-0.5,0-0.8,0C46.7,25,43.6,25.6,40.8,26.8z"/>
	</g>
	<polygon fill="#FFFFFF" points="41.8,41.9 46.4,38.5 40.7,38.5 39,33.1 37.2,38.5 31.5,38.5 36.1,41.9 34.4,47.3 39,43.9 
		43.6,47.3 	"/>
</g>
</svg>
