<?xml version="1.0" encoding="utf-8"?>
<!-- Generator: Adobe Illustrator 18.1.1, SVG Export Plug-In . SVG Version: 6.00 Build 0)  -->
<svg version="1.1" id="Layer_1" xmlns="http://www.w3.org/2000/svg" xmlns:xlink="http://www.w3.org/1999/xlink" x="0px" y="0px"
	 viewBox="24 24 52 52" enable-background="new 24 24 52 52" xml:space="preserve">
<g>
	<path fill="#FCD116" d="M75,50c0-6.3-2.4-12.1-6.3-16.5c-2.6-2.9-5.8-5.2-9.5-6.7c-2.9-1.1-6-1.8-9.2-1.8c-3.3,0-6.4,0.6-9.2,1.8
		c-3.7,1.5-6.9,3.8-9.5,6.7C27.4,37.9,25,43.7,25,50c0,0,0,0,0,0L75,50C75,50,75,50,75,50z"/>
	<path fill="#003893" d="M71.5,62.7C73.7,59,75,54.7,75,50H25c0,4.6,1.3,9,3.5,12.7H71.5z"/>
	<path fill="#CE1126" d="M28.6,62.9c2.8,4.7,7.1,8.3,12.2,10.4c2.9,1.1,6,1.8,9.2,1.8c3.3,0,6.4-0.6,9.2-1.8
		c5.1-2,9.4-5.7,12.2-10.4c0-0.1,0.1-0.1,0.1-0.2H28.5C28.5,62.8,28.5,62.8,28.6,62.9z"/>
</g>
</svg>
