<?xml version="1.0" encoding="utf-8"?>
<!-- Generator: Adobe Illustrator 18.1.1, SVG Export Plug-In . SVG Version: 6.00 Build 0)  -->
<svg version="1.1" id="Layer_1" xmlns="http://www.w3.org/2000/svg" xmlns:xlink="http://www.w3.org/1999/xlink" x="0px" y="0px"
	 viewBox="24 24 52 52" enable-background="new 24 24 52 52" xml:space="preserve">
<g>
	<path d="M68.7,33.5c-2.6-2.9-5.8-5.2-9.5-6.7c-2.9-1.1-6-1.8-9.2-1.8s-6.4,0.6-9.2,1.8c-3.7,1.5-6.9,3.8-9.5,6.7
		c-2.1,2.3-3.7,5.1-4.8,8.1h47.1C72.4,38.5,70.8,35.8,68.7,33.5z"/>
	<path fill="#DD0000" d="M26.5,58.5h47c1-2.7,1.5-5.5,1.5-8.5c0-3-0.5-5.8-1.5-8.5H26.5C25.5,44.2,25,47,25,50
		C25,53,25.5,55.9,26.5,58.5z"/>
	<path fill="#FFCE00" d="M28.6,62.9c2.8,4.7,7.1,8.3,12.2,10.4c2.9,1.1,6,1.8,9.2,1.8s6.4-0.6,9.2-1.8c5.1-2,9.4-5.7,12.2-10.4
		c0.8-1.4,1.5-2.8,2.1-4.4h-47C27,60.1,27.7,61.5,28.6,62.9z"/>
</g>
</svg>
