<?xml version="1.0" encoding="utf-8"?>
<!-- Generator: Adobe Illustrator 18.1.1, SVG Export Plug-In . SVG Version: 6.00 Build 0)  -->
<svg version="1.1" id="Layer_1" xmlns="http://www.w3.org/2000/svg" xmlns:xlink="http://www.w3.org/1999/xlink" x="0px" y="0px"
	 viewBox="24 24 52 52" enable-background="new 24 24 52 52" xml:space="preserve">
<g>
	<path fill="#DE2910" d="M68.8,33.4c-2-2.3-4.4-4.2-7.1-5.6v0c-0.8-0.4-1.6-0.8-2.4-1.1c-2.9-1.1-6-1.8-9.2-1.8s-6.4,0.6-9.2,1.8
		c-0.7,0.3-1.5,0.6-2.2,1c-2.8,1.4-5.3,3.4-7.3,5.7C27.4,37.9,25,43.6,25,50c0,4.7,1.3,9.1,3.6,12.9c2.4,4,5.9,7.2,10,9.4v0
		c0.7,0.4,1.4,0.7,2.2,1c2.9,1.1,6,1.8,9.2,1.8c3.3,0,6.4-0.6,9.2-1.8c0.8-0.3,1.6-0.7,2.4-1.1v0c4.1-2.1,7.5-5.3,9.8-9.3
		C73.7,59.1,75,54.7,75,50C75,43.6,72.6,37.9,68.8,33.4z"/>
	<g>
		<polygon fill="#FFFFFF" points="50.1,50 50.1,50 50.1,50 50.1,50 50.1,50 		"/>
		<path fill="#FFFFFF" d="M49.4,49.6c-0.8-0.7-1.5-1.7-1.8-2.9c-0.5-1.7-0.2-3.5,0.7-5l0.2,0.1c-0.9,1.4-1.2,3.2-0.7,4.8
			c0.3,1.2,1,2.3,1.9,2.9c-1.5-1.6-0.9-4.3,1.4-5.3c1.5-0.7,2.8-3.5,1.6-5.3c-1-1.6-0.8-3.3,1-4.2C45.2,34.2,41.1,45.4,49.4,49.6z
			 M48.7,39.6l0.7,0.7l0.9-0.3L50,40.7l0.6,0.7l-1-0.1l-0.5,0.8l-0.2-0.9L48,41l0.8-0.5L48.7,39.6z"/>
		<path fill="#FFFFFF" d="M50.2,49.2c0.4-1,1.1-1.9,2.2-2.6c1.5-1,3.3-1.3,5-0.8l-0.1,0.2c-1.6-0.4-3.4-0.1-4.8,0.8
			c-1,0.7-1.8,1.7-2.2,2.7c1.1-1.9,3.8-2.2,5.5-0.3c1.1,1.2,4.2,1.6,5.5-0.1c1.2-1.5,2.9-1.7,4.3-0.3C63.7,40.5,51.7,40.1,50.2,49.2
			z M58.9,47l-0.5,0.8l-0.2-0.9l-0.9-0.2l0.8-0.5l-0.1-1l0.7,0.7l0.9-0.3l-0.4,0.9l0.6,0.7L58.9,47z"/>
		<path fill="#FFFFFF" d="M50.9,49.9c1.1,0,2.2,0.5,3.2,1.3c1.4,1.1,2.2,2.7,2.3,4.5l-0.2,0c-0.1-1.7-0.9-3.2-2.3-4.3
			c-1-0.8-2.2-1.2-3.3-1.2c2.2,0.4,3.3,3,2,5.2c-0.8,1.5-0.2,4.5,1.8,5.3c1.7,0.7,2.5,2.2,1.6,4C63.3,59.9,60,48.4,50.9,49.9z
			 M56.4,57.5l-0.5,0.8l-0.2-0.9l-0.9-0.2l0.8-0.5l-0.1-1l0.7,0.7l0.9-0.3l-0.4,0.9l0.6,0.7L56.4,57.5z"/>
		<path fill="#FFFFFF" d="M50.3,54.1c-0.6,1.6-1.9,2.9-3.5,3.6l-0.1-0.2c1.6-0.6,2.8-1.9,3.4-3.5c0.4-1.2,0.5-2.4,0.1-3.5
			c0.3,2.2-1.8,4-4.3,3.5c-1.6-0.3-4.3,1.2-4.4,3.3c-0.1,1.9-1.3,3.1-3.3,2.8c6.6,5.5,16.5-1.2,12.3-9.5
			C50.8,51.8,50.7,53,50.3,54.1z M45.6,58.4l-0.5,0.8l-0.2-0.9l-0.9-0.2l0.8-0.5l-0.1-1l0.7,0.7l0.9-0.3l-0.4,0.9l0.6,0.7L45.6,58.4
			z"/>
		<path fill="#FFFFFF" d="M49.5,50.6c-0.9,0.6-2.1,0.9-3.3,0.8c-1.8-0.1-3.4-0.9-4.5-2.2l0.2-0.1c1.1,1.3,2.7,2.1,4.3,2.2
			c1.3,0.1,2.5-0.3,3.3-0.9c-2,0.9-4.4-0.5-4.6-3c-0.2-1.7-2.5-3.7-4.5-3.2c-1.8,0.5-3.4-0.3-3.7-2.3C33.5,49.7,43,57.1,49.5,50.6z
			 M40.6,47.6l-0.1-1l0.7,0.7l0.9-0.3l-0.4,0.9l0.6,0.7l-1-0.1l-0.5,0.8l-0.2-0.9l-0.9-0.2L40.6,47.6z"/>
	</g>
</g>
</svg>
