<?xml version="1.0" encoding="utf-8"?>
<!-- Generator: Adobe Illustrator 18.1.1, SVG Export Plug-In . SVG Version: 6.00 Build 0)  -->
<svg version="1.1" id="Layer_1" xmlns="http://www.w3.org/2000/svg" xmlns:xlink="http://www.w3.org/1999/xlink" x="0px" y="0px"
	 viewBox="24 24 52 52" enable-background="new 24 24 52 52" xml:space="preserve">
<g>
	<path fill="#FF0000" d="M50,25c-0.4,0-0.8,0-1.3,0h2.5C50.8,25,50.4,25,50,25z"/>
	<g>
		<path fill="#CE1126" d="M31.3,33.5C27.4,37.9,25,43.7,25,50c0,0,0,0.1,0,0.1h50c0,0,0-0.1,0-0.1c0-6.3-2.4-12.1-6.3-16.5
			c-2.6-2.9-5.8-5.2-9.5-6.7c-2.5-1-5.2-1.6-8-1.7h-2.5c-2.8,0.1-5.5,0.7-8,1.7C37.1,28.2,33.8,30.5,31.3,33.5z"/>
		<path fill="#FFFFFF" d="M28.6,62.9c2.8,4.7,7.1,8.3,12.2,10.4c2.9,1.1,6,1.8,9.2,1.8s6.4-0.6,9.2-1.8c5.1-2,9.4-5.7,12.2-10.4
			c2.3-3.7,3.6-8.1,3.6-12.8H25C25,54.8,26.3,59.1,28.6,62.9z"/>
	</g>
</g>
</svg>
