<?xml version="1.0" encoding="utf-8"?>
<!-- Generator: Adobe Illustrator 18.1.1, SVG Export Plug-In . SVG Version: 6.00 Build 0)  -->
<svg version="1.1" id="Layer_1" xmlns="http://www.w3.org/2000/svg" xmlns:xlink="http://www.w3.org/1999/xlink" x="0px" y="0px"
	 viewBox="24 24 52 52" enable-background="new 24 24 52 52" xml:space="preserve">
<g>
	<g>
		<path fill="#FF9933" d="M68.7,33.5c-2-2.3-4.4-4.2-7.1-5.6v0c-0.8-0.4-1.6-0.8-2.4-1.1c-2.9-1.1-6-1.8-9.2-1.8
			c-3.3,0-6.4,0.6-9.2,1.8c-0.7,0.3-1.5,0.6-2.2,1c-2.8,1.4-5.3,3.4-7.3,5.7c-1,1.1-1.8,2.2-2.6,3.5h42.6
			C70.6,35.7,69.7,34.5,68.7,33.5z"/>
		<path fill="#FFFFFF" d="M28.6,62.9c0,0.1,0.1,0.1,0.1,0.2h42.6c0-0.1,0.1-0.1,0.1-0.2C73.7,59.1,75,54.7,75,50
			c0-4.8-1.4-9.3-3.7-13.1H28.7C26.4,40.7,25,45.2,25,50C25,54.7,26.3,59.1,28.6,62.9z"/>
		<path fill="#128807" d="M38.6,72.2L38.6,72.2c0.7,0.4,1.4,0.7,2.2,1c2.9,1.1,6,1.8,9.2,1.8c3.3,0,6.4-0.6,9.2-1.8
			c0.8-0.3,1.6-0.7,2.4-1.1v0c4-2.1,7.3-5.2,9.7-9.1H28.7C31.1,67,34.5,70.1,38.6,72.2z"/>
	</g>
	<g>
		<path fill="#000088" d="M49.8,39.5c-5.8,0-10.5,4.7-10.5,10.5s4.7,10.5,10.5,10.5S60.3,55.8,60.3,50S55.6,39.5,49.8,39.5z
			 M55.8,57c-0.2-0.2-0.4-0.2-0.6-0.1s-0.2,0.4-0.1,0.6c-0.4,0.3-0.8,0.5-1.3,0.7c-0.1-0.2-0.4-0.3-0.6-0.2
			c-0.2,0.1-0.3,0.4-0.3,0.6c-0.5,0.2-0.9,0.3-1.4,0.4c0-0.2-0.3-0.4-0.5-0.4c-0.2,0-0.4,0.3-0.4,0.5c-0.2,0-0.5,0-0.7,0
			s-0.5,0-0.7,0c0-0.2-0.1-0.5-0.4-0.5c-0.2,0-0.5,0.1-0.5,0.4c-0.5-0.1-1-0.2-1.4-0.4c0.1-0.2,0-0.5-0.3-0.6
			c-0.2-0.1-0.5,0-0.6,0.2c-0.4-0.2-0.9-0.5-1.3-0.7c0.1-0.2,0.1-0.5-0.1-0.6c-0.2-0.1-0.5-0.1-0.6,0.1c-0.2-0.2-0.4-0.3-0.5-0.5
			c-0.2-0.2-0.3-0.4-0.5-0.5c0.2-0.2,0.2-0.4,0.1-0.6c-0.1-0.2-0.4-0.2-0.6-0.1c-0.3-0.4-0.5-0.8-0.7-1.3c0.2-0.1,0.3-0.4,0.2-0.6
			s-0.4-0.3-0.6-0.3c-0.2-0.5-0.3-0.9-0.4-1.4c0.2,0,0.4-0.3,0.4-0.5c0-0.2-0.3-0.4-0.5-0.4c0-0.2,0-0.5,0-0.7c0-0.3,0-0.5,0-0.7
			c0.2,0,0.5-0.1,0.5-0.4c0-0.2-0.1-0.5-0.4-0.5c0.1-0.5,0.2-1,0.4-1.4c0.2,0.1,0.5,0,0.6-0.3c0.1-0.2,0-0.5-0.2-0.6
			c0.2-0.4,0.5-0.9,0.7-1.3c0.2,0.1,0.5,0.1,0.6-0.1c0.1-0.2,0.1-0.5-0.1-0.6c0.2-0.2,0.3-0.4,0.5-0.5c0.2-0.2,0.4-0.3,0.5-0.5
			c0.2,0.2,0.4,0.2,0.6,0.1c0.2-0.1,0.2-0.4,0.1-0.6c0.4-0.3,0.8-0.5,1.3-0.7c0.1,0.2,0.4,0.3,0.6,0.2c0.2-0.1,0.3-0.4,0.3-0.6
			c0.5-0.2,0.9-0.3,1.4-0.4c0,0.2,0.3,0.4,0.5,0.4c0.2,0,0.4-0.3,0.4-0.5c0.2,0,0.5,0,0.7,0s0.5,0,0.7,0c0,0.2,0.1,0.5,0.4,0.5
			c0.2,0,0.5-0.1,0.5-0.4c0.5,0.1,1,0.2,1.4,0.4c-0.1,0.2,0,0.5,0.3,0.6c0.2,0.1,0.5,0,0.6-0.2c0.4,0.2,0.9,0.5,1.3,0.7
			c-0.1,0.2-0.1,0.5,0.1,0.6c0.2,0.1,0.5,0.1,0.6-0.1c0.2,0.2,0.4,0.3,0.5,0.5c0.2,0.2,0.3,0.4,0.5,0.5c-0.2,0.2-0.2,0.4-0.1,0.6
			c0.1,0.2,0.4,0.2,0.6,0.1c0.3,0.4,0.5,0.8,0.7,1.3c-0.2,0.1-0.3,0.4-0.2,0.6c0.1,0.2,0.4,0.3,0.6,0.3c0.2,0.5,0.3,0.9,0.4,1.4
			c-0.2,0-0.4,0.3-0.4,0.5c0,0.2,0.3,0.4,0.5,0.4c0,0.2,0,0.5,0,0.7c0,0.3,0,0.5,0,0.7c-0.2,0-0.5,0.1-0.5,0.4
			c0,0.2,0.1,0.5,0.4,0.5c-0.1,0.5-0.2,1-0.4,1.4c-0.2-0.1-0.5,0-0.6,0.3c-0.1,0.2,0,0.5,0.2,0.6c-0.2,0.4-0.5,0.9-0.7,1.3
			c-0.2-0.1-0.5-0.1-0.6,0.1c-0.1,0.2-0.1,0.5,0.1,0.6c-0.2,0.2-0.3,0.4-0.5,0.5C56.1,56.7,56,56.8,55.8,57z"/>
		<path fill="#000088" d="M51.2,51.2c0.1-0.1,0.1-0.1,0.2-0.2l1.5,1.1l4.9,2.5l-4.6-3l-1.7-0.7c0-0.1,0.1-0.2,0.1-0.3l1.7,0.7
			l5.4,1.1l-5.2-1.7l-1.8-0.3c0-0.1,0-0.2,0-0.3l1.8,0.2L59,50l-5.5-0.3l-1.8,0.2c0-0.1,0-0.2,0-0.3l1.8-0.3l5.2-1.7l-5.4,1.1
			l-1.7,0.7c0-0.1-0.1-0.2-0.1-0.3l1.7-0.7l4.6-3l-4.9,2.5L51.4,49c-0.1-0.1-0.1-0.2-0.2-0.2l1.5-1.1l3.7-4.1l-4.1,3.7l-1.1,1.5
			c-0.1-0.1-0.1-0.1-0.2-0.2l1.1-1.5l2.5-4.9l-3,4.6l-0.7,1.7c-0.1,0-0.2-0.1-0.3-0.1l0.7-1.7l1.1-5.4l-1.7,5.2l-0.3,1.8
			c-0.1,0-0.2,0-0.3,0l0.2-1.8l-0.3-5.5l-0.3,5.5l0.2,1.8c-0.1,0-0.2,0-0.3,0l-0.3-1.8l-1.7-5.2l1.1,5.4l0.7,1.7
			c-0.1,0-0.2,0.1-0.3,0.1l-0.7-1.7l-3-4.6l2.5,4.9l1.1,1.5c-0.1,0.1-0.2,0.1-0.2,0.2l-1.1-1.5l-4.1-3.7l3.7,4.1l1.5,1.1
			c-0.1,0.1-0.1,0.1-0.2,0.2l-1.5-1.1l-4.9-2.5l4.6,3l1.7,0.7c0,0.1-0.1,0.2-0.1,0.3l-1.7-0.7L41,47.6l5.2,1.7l1.8,0.3
			c0,0.1,0,0.2,0,0.3l-1.8-0.2L40.7,50l5.5,0.3l1.8-0.2c0,0.1,0,0.2,0,0.3l-1.8,0.3L41,52.4l5.4-1.1l1.7-0.7c0,0.1,0.1,0.2,0.1,0.3
			l-1.7,0.7l-4.6,3l4.9-2.5l1.5-1.1c0.1,0.1,0.1,0.2,0.2,0.2L47,52.4l-3.7,4.1l4.1-3.7l1.1-1.5c0.1,0.1,0.1,0.1,0.2,0.2L47.7,53
			l-2.5,4.9l3-4.6l0.7-1.7c0.1,0,0.2,0.1,0.3,0.1l-0.7,1.7l-1.1,5.4l1.7-5.2l0.3-1.8c0.1,0,0.2,0,0.3,0l-0.2,1.8l0.3,5.5l0.3-5.5
			l-0.2-1.8c0.1,0,0.2,0,0.3,0l0.3,1.8l1.7,5.2l-1.1-5.4l-0.7-1.7c0.1,0,0.2-0.1,0.3-0.1l0.7,1.7l3,4.6L51.9,53l-1.1-1.5
			c0.1-0.1,0.2-0.1,0.2-0.2l1.1,1.5l4.1,3.7l-3.7-4.1L51.2,51.2z"/>
	</g>
</g>
</svg>
