<?xml version="1.0" encoding="utf-8"?>
<!-- Generator: Adobe Illustrator 18.1.1, SVG Export Plug-In . SVG Version: 6.00 Build 0)  -->
<svg version="1.1" id="Layer_1" xmlns="http://www.w3.org/2000/svg" xmlns:xlink="http://www.w3.org/1999/xlink" x="0px" y="0px"
	 viewBox="24 24 52 52" enable-background="new 24 24 52 52" xml:space="preserve">
<g>
	<path fill="#009246" d="M31.3,33.5C27.4,37.9,25,43.7,25,50c0,4.7,1.3,9.1,3.6,12.9c2.4,4,5.9,7.2,10,9.3V27.8
		C35.8,29.2,33.3,31.1,31.3,33.5z"/>
	<path fill="#FFFFFF" d="M50,25c-3.3,0-6.4,0.6-9.2,1.8c-0.7,0.3-1.5,0.6-2.2,1v44.5c0.7,0.4,1.4,0.7,2.2,1c2.9,1.1,6,1.8,9.2,1.8
		s6.4-0.6,9.2-1.8c0.8-0.3,1.6-0.7,2.4-1.1V27.9c-0.8-0.4-1.6-0.8-2.4-1.1C56.4,25.6,53.3,25,50,25z"/>
	<path fill="#CE2B37" d="M71.4,62.9C73.7,59.1,75,54.7,75,50c0-6.3-2.4-12.1-6.3-16.5c-2-2.3-4.4-4.2-7.1-5.6v44.3
		C65.7,70,69.1,66.8,71.4,62.9z"/>
</g>
</svg>
