<?xml version="1.0" encoding="utf-8"?>
<!-- Generator: Adobe Illustrator 18.1.1, SVG Export Plug-In . SVG Version: 6.00 Build 0)  -->
<svg version="1.1" id="Layer_1" xmlns="http://www.w3.org/2000/svg" xmlns:xlink="http://www.w3.org/1999/xlink" x="0px" y="0px"
	 viewBox="24 24 52 52" enable-background="new 24 24 52 52" xml:space="preserve">
<title>Flag of South Korea</title>
<g>
	<path fill="#FFFFFF" d="M68.7,33.5c-2.6-2.9-5.8-5.2-9.5-6.7c-2.9-1.1-6-1.8-9.2-1.8s-6.4,0.6-9.2,1.8c-3.7,1.5-6.9,3.8-9.5,6.7
		C27.4,37.9,25,43.7,25,50c0,4.7,1.3,9.1,3.6,12.9c2.8,4.7,7.1,8.3,12.2,10.4c2.9,1.1,6,1.8,9.2,1.8c3.3,0,6.4-0.6,9.2-1.8
		c5.1-2,9.4-5.7,12.2-10.3C73.7,59.1,75,54.7,75,50C75,43.7,72.6,37.9,68.7,33.5z"/>
	<circle fill="#C60C30" cx="49.6" cy="50.1" r="10.1"/>
	<path fill="#003478" d="M41.2,44.5c-1.5,2.3-0.9,5.5,1.4,7s5.5,0.9,7-1.4s4.7-3,7-1.4c2.3,1.5,3,4.7,1.4,7c-3.1,4.6-9.4,5.9-14,2.8
		S38.1,49.2,41.2,44.5"/>
	<rect x="27" y="37.6" transform="matrix(-0.5547 0.8321 -0.8321 -0.5547 81.8614 33.0889)" width="10.1" height="1.7"/>
	<rect x="29.1" y="39" transform="matrix(-0.5547 0.8321 -0.8321 -0.5547 86.2995 33.5124)" width="10.1" height="1.7"/>
	<rect x="35.4" y="36.2" transform="matrix(0.8321 0.5547 -0.5547 0.8321 28.9744 -13.1975)" width="1.7" height="10.1"/>
	<rect x="64.7" y="61.8" transform="matrix(0.832 0.5547 -0.5547 0.832 46.5633 -25.6208)" width="1.7" height="4.6"/>
	<rect x="61.2" y="61.8" transform="matrix(-0.5547 0.8321 -0.8321 -0.5547 150.8544 44.6169)" width="4.6" height="1.7"/>
	<rect x="66.3" y="58.7" transform="matrix(-0.5547 0.8321 -0.8321 -0.5547 156.2197 35.4403)" width="4.6" height="1.7"/>
	<rect x="59.1" y="60.4" transform="matrix(-0.5547 0.8321 -0.8321 -0.5547 146.4284 44.1835)" width="4.6" height="1.7"/>
	<rect x="64.2" y="57.3" transform="matrix(0.5547 -0.8321 0.8321 0.5547 -18.745 81.2327)" width="4.6" height="1.7"/>
	<rect x="63.6" y="54.4" transform="matrix(-0.8321 -0.5547 0.5547 -0.8321 86.5606 139.6605)" width="1.7" height="4.6"/>
	<polygon points="34.2,54.3 32.8,55.3 35.3,59.1 35.3,59.1 35.8,59.8 35.8,59.8 38.4,63.7 39.8,62.7 	"/>
	<polygon points="33,61.7 32.5,61 32.5,61 30,57.1 28.6,58.1 34.2,66.5 35.6,65.5 	"/>
	<rect x="33.4" y="61.8" transform="matrix(0.5547 0.8321 -0.8321 0.5547 68.0502 -1.7909)" width="4.6" height="1.7"/>
	<rect x="30.3" y="57.3" transform="matrix(-0.5547 -0.8321 0.8321 -0.5547 2.4048 117.5406)" width="4.6" height="1.7"/>
	<rect x="62.1" y="42.7" transform="matrix(0.5547 0.8321 -0.8321 0.5547 64.908 -34.2192)" width="4.6" height="1.7"/>
	<rect x="61.3" y="36.6" transform="matrix(-0.5547 -0.8321 0.8321 -0.5547 67.3947 110.8787)" width="4.2" height="1.7"/>
	<polygon points="64.8,41 64.7,40.9 67.1,44.5 68.5,43.6 66.2,40.1 	"/>
	<rect x="67.8" y="38.4" transform="matrix(0.8321 -0.5547 0.5547 0.8321 -11.0661 44.9022)" width="1.7" height="4.6"/>
	<rect x="63.3" y="35.3" transform="matrix(-0.5547 -0.8321 0.8321 -0.5547 71.8669 110.8122)" width="4.6" height="1.7"/>
	<rect x="60.5" y="36.7" transform="matrix(0.8321 -0.5547 0.5547 0.8321 -11.3125 40.5933)" width="1.7" height="4.6"/>
	<rect x="64.4" y="38.5" transform="matrix(-0.5547 -0.8321 0.8321 -0.5547 67.7931 114.9367)" width="0.4" height="1.7"/>
	<polygon points="64.5,40.7 64.7,40.9 64.8,41 66.2,40.1 65.9,39.7 	"/>
	<rect x="64" y="39.6" width="0" height="0.4"/>
	<path d="M64.5,40.7l0.2,0.3L64.5,40.7z"/>
	<rect x="66.1" y="39.7" width="0" height="0.4"/>
	<polygon points="65.2,38.7 65.5,39 65.5,39 	"/>
	<rect x="64.2" y="39.4" transform="matrix(-0.8321 0.5547 -0.5547 -0.8321 141.1965 36.9546)" width="1.7" height="0.8"/>
	<polygon points="64.1,40 64.5,40.7 64.5,40.7 	"/>
	<rect x="65.7" y="39" width="0" height="0.8"/>
</g>
</svg>
