<?xml version="1.0" encoding="utf-8"?>
<!-- Generator: Adobe Illustrator 18.1.1, SVG Export Plug-In . SVG Version: 6.00 Build 0)  -->
<svg version="1.1" id="Layer_1" xmlns="http://www.w3.org/2000/svg" xmlns:xlink="http://www.w3.org/1999/xlink" x="0px" y="0px"
	 viewBox="24 24 52 52" enable-background="new 24 24 52 52" xml:space="preserve">
<title>Flag of Malaysia</title>
<g>
	<g>
		<defs>
			<path id="SVGID_1_" d="M68.7,33.5c-2.6-2.9-5.8-5.2-9.5-6.7c-2.9-1.1-6-1.8-9.2-1.8s-6.4,0.6-9.2,1.8c-3.7,1.5-6.9,3.8-9.5,6.7
				C27.4,37.9,25,43.7,25,50c0,4.7,1.3,9.1,3.6,12.9c2.8,4.7,7.1,8.3,12.2,10.4c2.9,1.1,6,1.8,9.2,1.8s6.4-0.6,9.2-1.8
				c5.1-2,9.4-5.7,12.2-10.4C73.7,59.1,75,54.7,75,50C75,43.7,72.6,37.9,68.7,33.5z"/>
		</defs>
		<clipPath id="SVGID_2_">
			<use xlink:href="#SVGID_1_"  overflow="visible"/>
		</clipPath>
		<g clip-path="url(#SVGID_2_)">
			<rect x="1" y="24.7" fill="#FFFFFF" width="101.3" height="50.6"/>
			<g id="v">
				<rect id="t" x="1" y="24.7" fill="#DC241F" width="101.3" height="3.6"/>
				<g>
					<rect id="t_1_" x="1" y="31.9" fill="#DC241F" width="101.3" height="3.6"/>
				</g>
				<g>
					<rect id="t_2_" x="1" y="39.2" fill="#DC241F" width="101.3" height="3.6"/>
				</g>
				<g>
					<rect id="t_3_" x="1" y="46.4" fill="#DC241F" width="101.3" height="3.6"/>
				</g>
			</g>
			<g>
				<g id="v_1_">
					<rect id="t_4_" x="1" y="46.4" fill="#DC241F" width="101.3" height="3.6"/>
					<g>
						<rect id="t_5_" x="1" y="53.6" fill="#DC241F" width="101.3" height="3.6"/>
					</g>
					<g>
						<rect id="t_6_" x="1" y="60.9" fill="#DC241F" width="101.3" height="3.6"/>
					</g>
					<g>
						<rect id="t_7_" x="1" y="68.1" fill="#DC241F" width="101.3" height="3.6"/>
					</g>
				</g>
				<rect x="1" y="24.7" fill="#0035AD" width="50.6" height="28.9"/>
				<g>
					<path fill="#FFD100" d="M32,41.2c0-3.4,2.7-6.1,5.9-6.1c0.9,0,1.7,0.2,2.4,0.5c-1.1-0.8-2.4-1.3-3.9-1.3
						c-3.7,0-6.7,3.1-6.7,6.8s3,6.8,6.7,6.8c1.4,0,2.8-0.5,3.9-1.3c-0.7,0.3-1.5,0.5-2.4,0.5C34.6,47.3,32,44.6,32,41.2z"/>
					<polygon fill="#FFD100" points="45.3,41.2 48.5,40 45.1,40.3 47.4,37.7 44.5,39.5 45.5,36.1 43.6,39 43.1,35.5 42.6,39 
						40.7,36.1 41.7,39.5 38.8,37.7 41.1,40.3 37.7,40 40.9,41.2 37.7,42.5 41.1,42.2 38.8,44.8 41.7,43 40.7,46.4 42.6,43.5 
						43.1,46.9 43.6,43.5 45.5,46.4 44.5,43 47.4,44.8 45.1,42.2 48.5,42.5 					"/>
				</g>
			</g>
		</g>
	</g>
</g>
</svg>
