<?xml version="1.0" encoding="utf-8"?>
<!-- Generator: Adobe Illustrator 18.1.1, SVG Export Plug-In . SVG Version: 6.00 Build 0)  -->
<svg version="1.1" id="Layer_1" xmlns="http://www.w3.org/2000/svg" xmlns:xlink="http://www.w3.org/1999/xlink" x="0px" y="0px"
	 viewBox="24 24 52 52" enable-background="new 24 24 52 52" xml:space="preserve">
<g>
	<path fill="#FFFFFF" d="M68.7,33.5c-2.6-2.9-5.8-5.2-9.5-6.7c-2.9-1.1-6-1.8-9.2-1.8c-3.3,0-6.4,0.6-9.2,1.8
		c-3.7,1.5-6.9,3.8-9.5,6.7c-2,2.3-3.7,5-4.7,8h47C72.4,38.5,70.8,35.8,68.7,33.5z"/>
	<path fill="#D52B1E" d="M28.6,62.9c2.8,4.7,7.1,8.3,12.2,10.3c2.9,1.1,6,1.8,9.2,1.8c3.3,0,6.4-0.6,9.2-1.8
		c5.1-2,9.4-5.7,12.2-10.3c0.8-1.3,1.5-2.8,2-4.2H26.5C27.1,60.1,27.8,61.5,28.6,62.9z"/>
	<path fill="#0039A6" d="M73.5,41.4h-47C25.5,44.1,25,47,25,50c0,0,0,0,0,0c0,3,0.5,5.9,1.5,8.6h46.9c1-2.7,1.5-5.6,1.5-8.6
		c0,0,0,0,0,0C75,47,74.5,44.1,73.5,41.4z"/>
</g>
</svg>
