<?xml version="1.0" encoding="utf-8"?>
<!-- Generator: Adobe Illustrator 18.1.1, SVG Export Plug-In . SVG Version: 6.00 Build 0)  -->
<svg version="1.1" id="Layer_1" xmlns="http://www.w3.org/2000/svg" xmlns:xlink="http://www.w3.org/1999/xlink" x="0px" y="0px"
	 viewBox="24 24 52 52" enable-background="new 24 24 52 52" xml:space="preserve">
<g>
	<path fill="#ED2939" d="M75,50c0-6.3-2.4-12.1-6.3-16.5c-2.6-2.9-5.8-5.2-9.5-6.7c-2.9-1.1-6-1.8-9.2-1.8s-6.4,0.6-9.2,1.8
		c-3.7,1.5-6.9,3.8-9.5,6.7C27.4,37.9,25,43.7,25,50c0,0,0,0,0,0L75,50C75,50,75,50,75,50z"/>
	<path fill="#FFFFFF" d="M40.8,73.2c2.9,1.1,6,1.8,9.2,1.8s6.4-0.6,9.2-1.8c5.1-2,9.4-5.7,12.2-10.4C73.7,59.1,75,54.7,75,50H25
		c0,4.7,1.3,9.1,3.6,12.9C31.4,67.5,35.7,71.2,40.8,73.2z"/>
	<g>
		<path fill="#FFFFFF" d="M39.6,37.3c0-4.6,3.6-8.3,8.1-8.5c-0.9-0.3-1.9-0.5-3-0.5c-5,0-9,4-9,9s4,9,9,9c1,0,2-0.2,3-0.5
			C43.2,45.6,39.6,41.9,39.6,37.3z"/>
		<g>
			<path id="star" fill="#FFFFFF" d="M45.8,37.5l-1.2-0.9l-1.2,0.9l0.5-1.5l-1.2-0.9l1.5,0l0.5-1.5l0.5,1.5l1.5,0L45.4,36L45.8,37.5
				z"/>
			<g transform="translate(577.18853,0)">
				<path id="star_1_" fill="#FFFFFF" d="M55.4,37.5l-1.2-0.9L53,37.5l0.5-1.5l-1.2-0.9l1.5,0l0.5-1.5l0.5,1.5l1.5,0L55,36
					L55.4,37.5z"/>
			</g>
			<g transform="translate(288.88853,-214.21117)">
				<path id="star_2_" fill="#FFFFFF" d="M50.6,34l-1.2-0.9L48.2,34l0.5-1.5l-1.2-0.9l1.5,0l0.5-1.5l0.5,1.5l1.5,0l-1.2,0.9L50.6,34
					z"/>
			</g>
			<g transform="translate(107.99953,342.74883)">
				<path id="star_3_" fill="#FFFFFF" d="M47.6,43.2l-1.2-0.9l-1.2,0.9l0.5-1.5l-1.2-0.9l1.5,0l0.5-1.5l0.5,1.5l1.5,0l-1.2,0.9
					L47.6,43.2z"/>
			</g>
			<g transform="translate(469.18853,342.74883)">
				<path id="star_4_" fill="#FFFFFF" d="M53.6,43.2l-1.2-0.9l-1.2,0.9l0.5-1.5l-1.2-0.9l1.5,0l0.5-1.5l0.5,1.5l1.5,0l-1.2,0.9
					L53.6,43.2z"/>
			</g>
		</g>
	</g>
</g>
</svg>
