<?xml version="1.0" encoding="utf-8"?>
<!-- Generator: Adobe Illustrator 18.1.1, SVG Export Plug-In . SVG Version: 6.00 Build 0)  -->
<svg version="1.1" id="Layer_1" xmlns="http://www.w3.org/2000/svg" xmlns:xlink="http://www.w3.org/1999/xlink" x="0px" y="0px"
	 viewBox="24 24 52 52" enable-background="new 24 24 52 52" xml:space="preserve">
<g>
	<path fill="#ED1C24" d="M40.8,73.2c2.9,1.1,6,1.8,9.2,1.8c3.3,0,6.4-0.6,9.2-1.8c3.5-1.4,6.6-3.5,9.1-6.2H31.7
		C34.2,69.7,37.3,71.8,40.8,73.2z"/>
	<path fill="#ED1C24" d="M59.2,26.8c-2.9-1.1-6-1.8-9.2-1.8c-3.3,0-6.4,0.6-9.2,1.8c-3.5,1.4-6.6,3.6-9.1,6.3h36.8
		C65.9,30.3,62.8,28.2,59.2,26.8z"/>
	<path fill="#FFFFFF" d="M26.5,41.6h47.1c-1.1-3-2.7-5.7-4.8-8.1c-0.1-0.1-0.2-0.3-0.3-0.4H31.6c-0.1,0.1-0.2,0.3-0.3,0.4
		C29.2,35.8,27.5,38.5,26.5,41.6z"/>
	<path fill="#FFFFFF" d="M28.6,62.9c0.9,1.5,1.9,2.9,3.1,4.1h36.7c1.2-1.3,2.2-2.6,3.1-4.1c0.8-1.4,1.5-2.8,2.1-4.4h-47
		C27,60,27.7,61.5,28.6,62.9z"/>
	<path fill="#241D4F" d="M25,50c0,3,0.5,5.9,1.5,8.5h47c1-2.7,1.5-5.5,1.5-8.5c0-3-0.5-5.8-1.5-8.5H26.5C25.5,44.2,25,47,25,50z"/>
</g>
</svg>
