<?xml version="1.0" encoding="utf-8"?>
<!-- Generator: Adobe Illustrator 18.1.1, SVG Export Plug-In . SVG Version: 6.00 Build 0)  -->
<svg version="1.1" id="Layer_1" xmlns="http://www.w3.org/2000/svg" xmlns:xlink="http://www.w3.org/1999/xlink" x="0px" y="0px"
	 viewBox="24 24 52 52" enable-background="new 24 24 52 52" xml:space="preserve">
<g>
	<path fill="#E30A17" d="M75,50c0-10.5-6.5-19.6-15.8-23.2c-2.9-1.1-6-1.8-9.2-1.8s-6.4,0.6-9.2,1.8C31.5,30.4,25,39.5,25,50
		s6.5,19.6,15.8,23.2c2.9,1.1,6,1.8,9.2,1.8s6.4-0.6,9.2-1.8C68.5,69.6,75,60.5,75,50z"/>
	<g>
		<path fill="#FFFFFF" d="M45.5,60.5c-5.8,0-10.6-4.7-10.6-10.6s4.7-10.6,10.6-10.6c3.1,0,5.9,1.4,7.9,3.5
			c-2.3-3.7-6.5-6.2-11.2-6.2c-7.3,0-13.2,5.9-13.2,13.2s5.9,13.2,13.2,13.2c4.7,0,8.8-2.5,11.2-6.2C51.4,59.1,48.6,60.5,45.5,60.5z
			"/>
		<polygon fill="#FFFFFF" points="61.8,49.9 64.6,46 60.1,47.5 57.2,43.6 57.2,48.4 52.7,49.9 57.2,51.4 57.2,56.2 60.1,52.3 
			64.6,53.8 		"/>
	</g>
</g>
</svg>
