<?xml version="1.0" encoding="utf-8"?>
<!-- Generator: Adobe Illustrator 18.1.1, SVG Export Plug-In . SVG Version: 6.00 Build 0)  -->
<svg version="1.1" id="Layer_1" xmlns="http://www.w3.org/2000/svg" xmlns:xlink="http://www.w3.org/1999/xlink" x="0px" y="0px"
	 viewBox="24 24 52 52" enable-background="new 24 24 52 52" xml:space="preserve">
<g>
	<g>
		<defs>
			<path id="SVGID_1_" d="M68.7,33.5c-2.6-2.9-5.8-5.2-9.5-6.7c-2.9-1.1-6-1.8-9.2-1.8s-6.4,0.6-9.2,1.8c-3.7,1.5-6.9,3.8-9.5,6.7
				C27.4,37.9,25,43.7,25,50c0,4.7,1.3,9.1,3.6,12.9c2.8,4.7,7.1,8.3,12.2,10.4c2.9,1.1,6,1.8,9.2,1.8s6.4-0.6,9.2-1.8
				c5.1-2,9.4-5.7,12.2-10.4C73.7,59.1,75,54.7,75,50C75,43.7,72.6,37.9,68.7,33.5z"/>
		</defs>
		<clipPath id="SVGID_2_">
			<use xlink:href="#SVGID_1_"  overflow="visible"/>
		</clipPath>
		<g clip-path="url(#SVGID_2_)">
			<rect id="green" x="24.5" y="22.2" fill="#009E49" width="50.5" height="18.5"/>
			<rect x="24.5" y="40.8" fill="#FFFFFF" width="50.5" height="18.5"/>
			<rect x="24.5" y="59.3" width="50.5" height="18.5"/>
			<rect id="red" x="24.5" y="22.2" fill="#CE1126" width="12.6" height="55.6"/>
		</g>
	</g>
</g>
</svg>
