<?xml version="1.0" encoding="utf-8"?>
<!-- Generator: Adobe Illustrator 18.1.1, SVG Export Plug-In . SVG Version: 6.00 Build 0)  -->
<svg version="1.1" id="Layer_1" xmlns="http://www.w3.org/2000/svg" xmlns:xlink="http://www.w3.org/1999/xlink" x="0px" y="0px"
	 viewBox="24 24 52 52" enable-background="new 24 24 52 52" xml:space="preserve">
<g>
	<g>
		<defs>
			<path id="SVGID_1_" d="M75,50c0-10.5-6.5-19.6-15.8-23.2c-2.9-1.1-6-1.8-9.2-1.8s-6.4,0.6-9.2,1.8C31.5,30.4,25,39.5,25,50
				s6.5,19.6,15.8,23.2c2.9,1.1,6,1.8,9.2,1.8s6.4-0.6,9.2-1.8C68.5,69.6,75,60.5,75,50z"/>
		</defs>
		<clipPath id="SVGID_2_">
			<use xlink:href="#SVGID_1_"  overflow="visible"/>
		</clipPath>
		<g clip-path="url(#SVGID_2_)">
			<path fill="#02277B" d="M-0.4,24.9v50.2H99.9V24.9H-0.4z"/>
			<g>
				<path d="M-0.4,24.9L99.9,75.1 M99.9,24.9L-0.4,75.1"/>
				<polygon fill="#FFFFFF" points="97.7,79.6 49.7,55.7 1.8,79.6 -2.7,70.6 38.4,50 -2.7,29.4 1.8,20.4 49.7,44.3 97.7,20.4 
					102.2,29.4 61.1,50 102.2,70.6 				"/>
			</g>
			
				<rect x="-10.3" y="35.5" transform="matrix(-0.8943 -0.4474 0.4474 -0.8943 22.1745 79.6843)" fill="#CF142B" width="61.6" height="3.5"/>
			
				<rect x="71.4" y="5.5" transform="matrix(-0.4487 -0.8937 0.8937 -0.4487 73.5127 118.0405)" fill="#CF142B" width="3.5" height="61.6"/>
			
				<rect x="22.2" y="34" transform="matrix(-0.4487 -0.8937 0.8937 -0.4487 -23.3532 115.1301)" fill="#CF142B" width="3.3" height="61.6"/>
			
				<rect x="46.9" y="60.3" transform="matrix(-0.8943 -0.4474 0.4474 -0.8943 119.4594 152.2415)" fill="#CF142B" width="61.6" height="3.3"/>
			<g>
				<path d="M49.7,24.9v50.2 M-0.4,50H99.9"/>
				<polygon fill="#FFFFFF" points="58.1,75.1 41.4,75.1 41.4,58.3 -0.4,58.3 -0.4,41.7 41.4,41.7 41.4,24.9 58.1,24.9 58.1,41.7 
					99.9,41.7 99.9,58.3 58.1,58.3 				"/>
			</g>
			<g>
				<path d="M49.7,24.9v50.2 M-0.4,50H99.9"/>
				<polygon fill="#CF142B" points="54.8,75.1 44.7,75.1 44.7,55 -0.4,55 -0.4,45 44.7,45 44.7,24.9 54.8,24.9 54.8,45 99.9,45 
					99.9,55 54.8,55 				"/>
			</g>
		</g>
	</g>
</g>
</svg>
