<?xml version="1.0" encoding="utf-8"?>
<!-- Generator: Adobe Illustrator 18.1.1, SVG Export Plug-In . SVG Version: 6.00 Build 0)  -->
<svg version="1.1" id="Layer_1" xmlns="http://www.w3.org/2000/svg" xmlns:xlink="http://www.w3.org/1999/xlink" x="0px" y="0px"
	 viewBox="24 24 52 52" enable-background="new 24 24 52 52" xml:space="preserve">
<g>
	<g>
		<g>
			<g id="star_17_">
			</g>
			<g id="star_18_">
			</g>
			<g id="star_19_">
			</g>
			<g id="star_20_">
			</g>
			<g id="star_21_">
			</g>
		</g>
	</g>
	<g>
		<g>
			<g id="s6_2_">
			</g>
			<g id="s5_3_">
			</g>
			<g id="s6_3_">
			</g>
			<g id="s5_4_">
			</g>
		</g>
		<g id="s6_4_">
		</g>
	</g>
</g>
<g>
	<g>
		<defs>
			<path id="SVGID_1_" d="M59.2,26.8c-2.9-1.1-6-1.8-9.2-1.8s-6.4,0.6-9.2,1.8C31.5,30.4,25,39.5,25,50s6.5,19.6,15.8,23.2
				c2.9,1.1,6,1.8,9.2,1.8s6.4-0.6,9.2-1.8C68.5,69.6,75,60.5,75,50S68.5,30.4,59.2,26.8z"/>
		</defs>
		<clipPath id="SVGID_2_">
			<use xlink:href="#SVGID_1_"  overflow="visible"/>
		</clipPath>
		<g clip-path="url(#SVGID_2_)">
			<rect x="7.4" y="24.8" fill="#FFFFFF" width="112.7" height="59.3"/>
			<g>
				<rect id="stripe" x="7.4" y="24.8" fill="#B22234" width="112.7" height="4.6"/>
			</g>
			<g>
				<rect id="stripe_1_" x="7.4" y="34" fill="#B22234" width="112.7" height="4.6"/>
			</g>
			<g>
				<rect id="stripe_2_" x="7.4" y="43.1" fill="#B22234" width="112.7" height="4.6"/>
			</g>
			<g>
				<rect id="stripe_3_" x="7.4" y="52.2" fill="#B22234" width="112.7" height="4.6"/>
			</g>
			<g>
				<rect id="stripe_4_" x="7.4" y="61.3" fill="#B22234" width="112.7" height="4.6"/>
			</g>
			<g>
				<rect id="stripe_5_" x="7.4" y="70.5" fill="#B22234" width="112.7" height="4.6"/>
			</g>
			<g>
				<rect id="stripe_6_" x="7.4" y="79.6" fill="#B22234" width="112.7" height="4.6"/>
			</g>
			<rect x="7.4" y="24.8" fill="#3C3B6E" width="45.1" height="31.9"/>
			<g>
				<polygon fill="#FFFFFF" points="11.3,25.9 10.9,27.1 9.5,27.1 10.6,27.9 10.2,29.2 11.3,28.4 12.3,29.2 11.9,27.9 13,27.1 
					11.7,27.1 				"/>
				<polygon fill="#FFFFFF" points="18.7,25.9 18.3,27.1 17,27.1 18.1,27.9 17.7,29.2 18.7,28.4 19.8,29.2 19.4,27.9 20.5,27.1 
					19.1,27.1 				"/>
				<polygon fill="#FFFFFF" points="26.2,25.9 25.8,27.1 24.5,27.1 25.5,27.9 25.1,29.2 26.2,28.4 27.3,29.2 26.9,27.9 27.9,27.1 
					26.6,27.1 				"/>
				<polygon fill="#FFFFFF" points="33.7,25.9 33.3,27.1 31.9,27.1 33,27.9 32.6,29.2 33.7,28.4 34.8,29.2 34.3,27.9 35.4,27.1 
					34.1,27.1 				"/>
				<polygon fill="#FFFFFF" points="41.1,25.9 40.7,27.1 39.4,27.1 40.5,27.9 40.1,29.2 41.1,28.4 42.2,29.2 41.8,27.9 42.9,27.1 
					41.6,27.1 				"/>
				<polygon fill="#FFFFFF" points="48,27.9 47.5,29.2 48.6,28.4 49.7,29.2 49.3,27.9 50.4,27.1 49,27.1 48.6,25.9 48.2,27.1 
					46.9,27.1 				"/>
				<polygon fill="#FFFFFF" points="15.4,30.4 15,29.1 14.6,30.4 13.3,30.4 14.3,31.1 13.9,32.4 15,31.6 16.1,32.4 15.7,31.1 
					16.7,30.4 				"/>
				<polygon fill="#FFFFFF" points="22.9,30.4 22.5,29.1 22.1,30.4 20.7,30.4 21.8,31.1 21.4,32.4 22.5,31.6 23.5,32.4 23.1,31.1 
					24.2,30.4 				"/>
				<polygon fill="#FFFFFF" points="30.4,30.4 29.9,29.1 29.5,30.4 28.2,30.4 29.3,31.1 28.9,32.4 29.9,31.6 31,32.4 30.6,31.1 
					31.7,30.4 				"/>
				<polygon fill="#FFFFFF" points="37.8,30.4 37.4,29.1 37,30.4 35.7,30.4 36.8,31.1 36.3,32.4 37.4,31.6 38.5,32.4 38.1,31.1 
					39.1,30.4 				"/>
				<polygon fill="#FFFFFF" points="45.3,30.4 44.9,29.1 44.5,30.4 43.1,30.4 44.2,31.1 43.8,32.4 44.9,31.6 46,32.4 45.5,31.1 
					46.6,30.4 				"/>
				<polygon fill="#FFFFFF" points="11.7,33.6 11.3,32.3 10.9,33.6 9.5,33.6 10.6,34.3 10.2,35.6 11.3,34.8 12.3,35.6 11.9,34.3 
					13,33.6 				"/>
				<polygon fill="#FFFFFF" points="19.1,33.6 18.7,32.3 18.3,33.6 17,33.6 18.1,34.3 17.7,35.6 18.7,34.8 19.8,35.6 19.4,34.3 
					20.5,33.6 				"/>
				<polygon fill="#FFFFFF" points="26.6,33.6 26.2,32.3 25.8,33.6 24.5,33.6 25.5,34.3 25.1,35.6 26.2,34.8 27.3,35.6 26.9,34.3 
					27.9,33.6 				"/>
				<polygon fill="#FFFFFF" points="34.1,33.6 33.7,32.3 33.3,33.6 31.9,33.6 33,34.3 32.6,35.6 33.7,34.8 34.8,35.6 34.3,34.3 
					35.4,33.6 				"/>
				<polygon fill="#FFFFFF" points="41.6,33.6 41.1,32.3 40.7,33.6 39.4,33.6 40.5,34.3 40.1,35.6 41.1,34.8 42.2,35.6 41.8,34.3 
					42.9,33.6 				"/>
				<polygon fill="#FFFFFF" points="49,33.6 48.6,32.3 48.2,33.6 46.9,33.6 48,34.3 47.5,35.6 48.6,34.8 49.7,35.6 49.3,34.3 
					50.4,33.6 				"/>
				<polygon fill="#FFFFFF" points="15.4,36.9 15,35.6 14.6,36.9 13.3,36.9 14.3,37.6 13.9,38.9 15,38.1 16.1,38.9 15.7,37.6 
					16.7,36.9 				"/>
				<polygon fill="#FFFFFF" points="22.9,36.9 22.5,35.6 22.1,36.9 20.7,36.9 21.8,37.6 21.4,38.9 22.5,38.1 23.5,38.9 23.1,37.6 
					24.2,36.9 				"/>
				<polygon fill="#FFFFFF" points="30.4,36.9 29.9,35.6 29.5,36.9 28.2,36.9 29.3,37.6 28.9,38.9 29.9,38.1 31,38.9 30.6,37.6 
					31.7,36.9 				"/>
				<polygon fill="#FFFFFF" points="37.8,36.9 37.4,35.6 37,36.9 35.7,36.9 36.8,37.6 36.3,38.9 37.4,38.1 38.5,38.9 38.1,37.6 
					39.1,36.9 				"/>
				<polygon fill="#FFFFFF" points="45.3,36.9 44.9,35.6 44.5,36.9 43.1,36.9 44.2,37.6 43.8,38.9 44.9,38.1 46,38.9 45.5,37.6 
					46.6,36.9 				"/>
				<polygon fill="#FFFFFF" points="11.7,40.1 11.3,38.8 10.9,40.1 9.5,40.1 10.6,40.8 10.2,42.1 11.3,41.3 12.3,42.1 11.9,40.8 
					13,40.1 				"/>
				<polygon fill="#FFFFFF" points="19.1,40.1 18.7,38.8 18.3,40.1 17,40.1 18.1,40.8 17.7,42.1 18.7,41.3 19.8,42.1 19.4,40.8 
					20.5,40.1 				"/>
				<polygon fill="#FFFFFF" points="26.6,40.1 26.2,38.8 25.8,40.1 24.5,40.1 25.5,40.8 25.1,42.1 26.2,41.3 27.3,42.1 26.9,40.8 
					27.9,40.1 				"/>
				<polygon fill="#FFFFFF" points="34.1,40.1 33.7,38.8 33.3,40.1 31.9,40.1 33,40.8 32.6,42.1 33.7,41.3 34.8,42.1 34.3,40.8 
					35.4,40.1 				"/>
				<polygon fill="#FFFFFF" points="41.6,40.1 41.1,38.8 40.7,40.1 39.4,40.1 40.5,40.8 40.1,42.1 41.1,41.3 42.2,42.1 41.8,40.8 
					42.9,40.1 				"/>
				<polygon fill="#FFFFFF" points="49,40.1 48.6,38.8 48.2,40.1 46.9,40.1 48,40.8 47.5,42.1 48.6,41.3 49.7,42.1 49.3,40.8 
					50.4,40.1 				"/>
				<polygon fill="#FFFFFF" points="15.4,43.4 15,42.1 14.6,43.4 13.3,43.4 14.3,44.2 13.9,45.4 15,44.6 16.1,45.4 15.7,44.2 
					16.7,43.4 				"/>
				<polygon fill="#FFFFFF" points="22.9,43.4 22.5,42.1 22.1,43.4 20.7,43.4 21.8,44.2 21.4,45.4 22.5,44.6 23.5,45.4 23.1,44.2 
					24.2,43.4 				"/>
				<polygon fill="#FFFFFF" points="30.4,43.4 29.9,42.1 29.5,43.4 28.2,43.4 29.3,44.2 28.9,45.4 29.9,44.6 31,45.4 30.6,44.2 
					31.7,43.4 				"/>
				<polygon fill="#FFFFFF" points="37.8,43.4 37.4,42.1 37,43.4 35.7,43.4 36.8,44.2 36.3,45.4 37.4,44.6 38.5,45.4 38.1,44.2 
					39.1,43.4 				"/>
				<polygon fill="#FFFFFF" points="45.3,43.4 44.9,42.1 44.5,43.4 43.1,43.4 44.2,44.2 43.8,45.4 44.9,44.6 46,45.4 45.5,44.2 
					46.6,43.4 				"/>
				<polygon fill="#FFFFFF" points="11.7,46.6 11.3,45.3 10.9,46.6 9.5,46.6 10.6,47.4 10.2,48.6 11.3,47.8 12.3,48.6 11.9,47.4 
					13,46.6 				"/>
				<polygon fill="#FFFFFF" points="19.1,46.6 18.7,45.3 18.3,46.6 17,46.6 18.1,47.4 17.7,48.6 18.7,47.8 19.8,48.6 19.4,47.4 
					20.5,46.6 				"/>
				<polygon fill="#FFFFFF" points="26.6,46.6 26.2,45.3 25.8,46.6 24.5,46.6 25.5,47.4 25.1,48.6 26.2,47.8 27.3,48.6 26.9,47.4 
					27.9,46.6 				"/>
				<polygon fill="#FFFFFF" points="34.1,46.6 33.7,45.3 33.3,46.6 31.9,46.6 33,47.4 32.6,48.6 33.7,47.8 34.8,48.6 34.3,47.4 
					35.4,46.6 				"/>
				<polygon fill="#FFFFFF" points="41.6,46.6 41.1,45.3 40.7,46.6 39.4,46.6 40.5,47.4 40.1,48.6 41.1,47.8 42.2,48.6 41.8,47.4 
					42.9,46.6 				"/>
				<polygon fill="#FFFFFF" points="49,46.6 48.6,45.3 48.2,46.6 46.9,46.6 48,47.4 47.5,48.6 48.6,47.8 49.7,48.6 49.3,47.4 
					50.4,46.6 				"/>
				<polygon fill="#FFFFFF" points="15.4,49.9 15,48.6 14.6,49.9 13.3,49.9 14.3,50.6 13.9,51.9 15,51.1 16.1,51.9 15.7,50.6 
					16.7,49.9 				"/>
				<polygon fill="#FFFFFF" points="22.9,49.9 22.5,48.6 22.1,49.9 20.7,49.9 21.8,50.6 21.4,51.9 22.5,51.1 23.5,51.9 23.1,50.6 
					24.2,49.9 				"/>
				<polygon fill="#FFFFFF" points="30.4,49.9 29.9,48.6 29.5,49.9 28.2,49.9 29.3,50.6 28.9,51.9 29.9,51.1 31,51.9 30.6,50.6 
					31.7,49.9 				"/>
				<polygon fill="#FFFFFF" points="37.8,49.9 37.4,48.6 37,49.9 35.7,49.9 36.8,50.6 36.3,51.9 37.4,51.1 38.5,51.9 38.1,50.6 
					39.1,49.9 				"/>
				<polygon fill="#FFFFFF" points="45.3,49.9 44.9,48.6 44.5,49.9 43.1,49.9 44.2,50.6 43.8,51.9 44.9,51.1 46,51.9 45.5,50.6 
					46.6,49.9 				"/>
				<polygon fill="#FFFFFF" points="11.7,53.1 11.3,51.8 10.9,53.1 9.5,53.1 10.6,53.9 10.2,55.1 11.3,54.3 12.3,55.1 11.9,53.9 
					13,53.1 				"/>
				<polygon fill="#FFFFFF" points="19.1,53.1 18.7,51.8 18.3,53.1 17,53.1 18.1,53.9 17.7,55.1 18.7,54.3 19.8,55.1 19.4,53.9 
					20.5,53.1 				"/>
				<polygon fill="#FFFFFF" points="26.6,53.1 26.2,51.8 25.8,53.1 24.5,53.1 25.5,53.9 25.1,55.1 26.2,54.3 27.3,55.1 26.9,53.9 
					27.9,53.1 				"/>
				<polygon fill="#FFFFFF" points="34.1,53.1 33.7,51.8 33.3,53.1 31.9,53.1 33,53.9 32.6,55.1 33.7,54.3 34.8,55.1 34.3,53.9 
					35.4,53.1 				"/>
				<polygon fill="#FFFFFF" points="41.6,53.1 41.1,51.8 40.7,53.1 39.4,53.1 40.5,53.9 40.1,55.1 41.1,54.3 42.2,55.1 41.8,53.9 
					42.9,53.1 				"/>
				<polygon fill="#FFFFFF" points="49,53.1 48.6,51.8 48.2,53.1 46.9,53.1 48,53.9 47.5,55.1 48.6,54.3 49.7,55.1 49.3,53.9 
					50.4,53.1 				"/>
			</g>
		</g>
	</g>
</g>
</svg>
