<?xml version="1.0" encoding="utf-8"?>
<!-- Generator: Adobe Illustrator 18.1.1, SVG Export Plug-In . SVG Version: 6.00 Build 0)  -->
<svg version="1.1" id="Layer_1" xmlns="http://www.w3.org/2000/svg" xmlns:xlink="http://www.w3.org/1999/xlink" x="0px" y="0px"
	 viewBox="0 0 100 100" enable-background="new 0 0 100 100" xml:space="preserve">
<path style="fill:#f08817;" fill="#020202" d="M42.6,28.9c-0.8,0-1.5,0.6-1.5,1.4c0,0.8,0.7,1.4,1.4,1.4c0.8,0,1.4-0.6,1.4-1.4
	C44,29.5,43.3,28.9,42.6,28.9z"/>
<path style="fill:#f08817;" fill="#020202" d="M58.3,28.9c-0.8,0-1.4,0.6-1.4,1.4c0,0.8,0.6,1.4,1.4,1.4c0.8,0,1.4-0.6,1.4-1.4
	C59.7,29.5,59.1,28.8,58.3,28.9z"/>
<path style="fill:#f08817;" fill="#020202" d="M50.1,0.5C22.8,0.5,0.5,22.8,0.5,50.1c0,27.3,22.3,49.4,49.6,49.4s49.4-22.1,49.4-49.4
	C99.5,22.8,77.4,0.5,50.1,0.5z M31.7,58.6c0,2-1.6,3.7-3.5,3.7c-2.2,0.1-3.9-1.4-4.1-3.5c0-0.2,0-0.4,0-0.6c0-5.2,0-10.4,0-15.6
	c0-1.6,0.6-2.8,2.1-3.6c2.6-1.4,5.5,0.5,5.6,3.3c0,2.7,0,5.5,0,8.2c0,0,0,0,0,0C31.7,53.2,31.7,55.9,31.7,58.6z M65.3,67.9
	c-0.5,0.3-1.2,0.4-1.8,0.4c-0.9,0.1-1.9,0-2.9,0c0,0.3,0,0.5,0,0.7c0,2.6,0,5.2,0,7.8c0,2.1-1.4,3.7-3.5,3.9c-0.1,0-0.2,0-0.2,0.1
	c-0.1,0-0.2,0-0.3,0c-0.1,0-0.2-0.1-0.2-0.1c-2.1-0.4-3.3-1.9-3.3-3.9c0-2.6,0-5.2,0-7.8c0-0.2,0-0.4,0-0.5c-1.8,0-3.5,0-5.2,0
	c0,0.2,0,0.4,0,0.6c0,2.6,0,5.2,0,7.9c0,1-0.3,1.8-0.9,2.5c-0.7,0.8-1.6,1.2-2.6,1.4c-0.1,0-0.3,0-0.4,0c-1.1-0.1-2-0.5-2.7-1.4
	c-0.6-0.7-0.9-1.5-0.9-2.4c0-2.7,0-5.3,0-8c0-0.2,0-0.4,0-0.7c-0.9,0-1.8,0-2.6,0c-2.5,0-4.2-1.7-4.2-4.2c0-8.1,0-16.2,0-24.3
	c0-0.1,0-0.3,0-0.4c11.4,0,22.8,0,34.3,0c0,0.2,0,0.4,0,0.6c0,8.1,0,16.1,0,24.2C67.5,65.9,66.8,67.1,65.3,67.9z M33.1,37.8
	c0-2.9,0.9-5.6,2.5-8c1.6-2.4,3.7-4.2,6.3-5.6c-0.4-0.8-0.8-1.5-1.2-2.2c-0.5-0.9-1-1.8-1.4-2.6c-0.2-0.4,0-0.6,0.2-0.9
	c0.1,0,0.2,0,0.3,0c0.1,0.1,0.3,0.3,0.4,0.4c0.5,0.8,0.9,1.7,1.4,2.5c0.4,0.8,0.8,1.5,1.3,2.3c0.2-0.1,0.4-0.1,0.5-0.2
	c4.6-1.8,9.2-1.8,13.9-0.1c0.7,0.3,0.7,0.3,1-0.4c0.9-1.5,1.7-3.1,2.6-4.6c0.1,0,0.3,0,0.4,0c0.4,0.3,0.3,0.7,0.1,1.1
	c-0.7,1.3-1.4,2.6-2.1,3.9c-0.1,0.2-0.2,0.4-0.4,0.7c5.3,3,8.5,7.4,8.8,13.6C56.2,37.8,44.7,37.8,33.1,37.8z M76.7,58.3
	c0,1.9-1.2,3.5-2.8,3.9c-2.5,0.6-4.8-1.1-4.8-3.7c0-5.3,0-10.7,0-16c0-1.7,0.9-2.9,2.4-3.6c1.4-0.6,2.7-0.3,3.9,0.6
	c1,0.8,1.4,1.9,1.4,3.1c0,2.6,0,5.2,0,7.9c0,0,0,0,0,0C76.7,53.1,76.7,55.7,76.7,58.3z"/>
</svg>
