<?xml version="1.0" encoding="utf-8"?>
<!-- Generator: Adobe Illustrator 18.1.1, SVG Export Plug-In . SVG Version: 6.00 Build 0)  -->
<svg version="1.1" id="Layer_1" xmlns="http://www.w3.org/2000/svg" xmlns:xlink="http://www.w3.org/1999/xlink" x="0px" y="0px"
	 viewBox="0 0 100 100" enable-background="new 0 0 100 100" xml:space="preserve">
<g>
	<path style="fill:#f08817;" fill="#020202" d="M0.5,50.1c0-27.3,22.3-49.6,49.6-49.6s49.4,22.3,49.4,49.6c0,27.3-22.1,49.4-49.4,49.4S0.5,77.4,0.5,50.1z
		 M36,63.4c1.8,2.8,4.2,6.1,7.2,5.9c3-0.1,4.1-2,7.6-2c3.5,0,4.6,2,7.7,1.8c3.1,0,5.1-2.8,7-5.6c2.3-3.2,3.1-6.3,3.2-6.6
		c-0.1,0-6.2-2.3-6.3-9.3c0-5.9,4.8-8.7,5.1-8.9c-2.7-3.9-6.9-4.5-8.4-4.5c-3.7-0.4-7,2.1-8.9,2.1c-1.8,0-4.6-2.1-7.6-2
		c-3.9,0-7.6,2.3-9.6,5.8C28.9,47.3,31.9,57.8,36,63.4z M49.8,33.7c2.7,0.3,5.4-1.3,6.9-3.2c1.7-2,2.7-4.6,2.4-7.5
		c-2.3,0.1-5.1,1.5-6.8,3.5C50.8,28.4,49.5,31.1,49.8,33.7z"/>
</g>
</svg>
