<?xml version="1.0" encoding="iso-8859-1"?>
<!-- Generator: Adobe Illustrator 18.1.1, SVG Export Plug-In . SVG Version: 6.00 Build 0)  -->
<svg version="1.1" id="Layer_1" xmlns="http://www.w3.org/2000/svg" xmlns:xlink="http://www.w3.org/1999/xlink" x="0px" y="0px"
	 viewBox="0 0 100 121.736" style="enable-background:new 0 0 100 121.736;" xml:space="preserve">
<path style="fill:#039fda;" d="M65.899,29.64l3.769-9.82c1.554-4.048-0.792-8.542-5.001-9.583l-5.028-1.243c-6.432-1.59-13.155-1.59-19.588,0l-5.028,1.243
	c-4.209,1.041-6.554,5.535-5.001,9.583l3.769,9.82c5.021-2.326,10.452-3.634,16.054-3.634C55.447,26.006,60.878,27.314,65.899,29.64
	z"/>
<path style="fill:#039fda;" d="M52.761,73.839c-0.14-0.028-0.336-0.084-0.505-0.112v9.11c2.747-0.224,4.681-1.962,4.681-4.541
	C56.937,76.081,55.564,74.624,52.761,73.839z"/>
<path style="fill:#039fda;" d="M43.538,60.889c0,1.962,1.261,3.364,3.644,4.12c0.224,0.084,0.42,0.14,0.645,0.196v-8.493
	C45.36,56.992,43.538,58.534,43.538,60.889z"/>
<path style="fill:#039fda;" d="M49.845,29.006c-22.348,0-40.464,22.116-40.464,44.464s18.116,40.464,40.464,40.464c22.348,0,40.464-18.116,40.464-40.464
	S72.193,29.006,49.845,29.006z M52.312,89.256l0.028,3.532h-4.709l0.028-3.504c-9.53-0.673-12.922-6.279-13.006-11.437h7.905
	c0.112,2.439,1.878,4.541,5.27,5.017V72.97l-2.495-0.533c-5.354-1.149-9.979-4.485-9.979-10.904c0-6.783,5.438-10.54,12.333-11.184
	v-3.588h4.709v3.616c7.288,0.813,11.829,5.354,11.913,11.156h-7.68c-0.084-2.102-1.598-4.289-4.373-4.793v9.278l2.411,0.533
	c5.606,1.121,10.371,4.008,10.371,10.904C65.038,84.126,60.161,88.471,52.312,89.256z"/>
<g>
</g>
<g>
</g>
<g>
</g>
<g>
</g>
<g>
</g>
<g>
</g>
</svg>
