<?xml version="1.0" encoding="utf-8"?>
<!-- Generator: Adobe Illustrator 18.1.1, SVG Export Plug-In . SVG Version: 6.00 Build 0)  -->
<svg version="1.1" id="Layer_1" xmlns="http://www.w3.org/2000/svg" xmlns:xlink="http://www.w3.org/1999/xlink" x="0px" y="0px"
	 viewBox="0 0 100 100" enable-background="new 0 0 100 100" xml:space="preserve">
<path style="fill:#f08817;" fill="#020202" d="M50.1,0.5C22.8,0.5,0.5,22.8,0.5,50.1c0,27.3,22.3,49.4,49.6,49.4s49.4-22.1,49.4-49.4
	C99.5,22.8,77.4,0.5,50.1,0.5z M35.8,49.5c-0.1,1-0.4,1.9-0.9,2.8c-0.7,1.2-1.8,1.9-3,2.5c-1.1,0.5-2.3,0.8-3.5,0.9
	c-0.9,0.1-1.8,0.1-2.7,0.1c-3.2,0-6.4,0-9.6,0c0,0,0,0,0,0c0.1-0.5,0.2-1,0.3-1.5c0.5-2.1,0.9-4.2,1.4-6.2c0.3-1.5,0.6-3,1-4.5
	c0-0.1,0-0.1,0-0.2c0,0,0.1,0,0.1,0c3.3,0,6.6,0,9.8,0c1.3,0,2.7,0.2,3.9,0.7c1.3,0.5,2.3,1.4,2.8,2.7
	C35.8,47.7,35.9,48.6,35.8,49.5z M35.2,36.1c-1,0.4-2,0.7-3.1,0.8c-0.9,0.1-1.8,0.2-2.7,0.2c-3.3,0-6.5,0-9.8,0c-0.1,0-0.1,0-0.2,0
	c0.1-0.4,0.2-0.9,0.3-1.3c0.4-2,0.9-4,1.3-6.1c0.4-1.7,0.7-3.3,1.1-5c0,0,0,0,0-0.1c3.5,0,6.9,0,10.4,0c0.3,0,0.7,0.1,1,0.1
	c1.3,0.2,2.5,0.5,3.6,1.2c1.1,0.8,1.8,1.9,2,3.2c0.2,1.8-0.1,3.4-1.2,4.8C37.2,35,36.3,35.6,35.2,36.1z M56.6,72
	c-0.7,1-1.6,1.8-2.8,2.3c-1,0.5-2.2,0.8-3.3,0.9c-0.9,0.1-1.9,0.2-2.8,0.2c-3.2,0-6.4,0-9.6,0c-0.1,0-0.1,0-0.2,0
	c0.2-0.7,0.3-1.4,0.5-2.2c0.5-2.1,0.9-4.3,1.4-6.4c0.3-1.2,0.5-2.5,0.8-3.7c0-0.1,0.1-0.1,0.2-0.1c0,0,0.1,0,0.1,0c3,0,6.1,0,9.1,0
	c1.2,0,2.4,0.1,3.5,0.4c0.8,0.2,1.6,0.5,2.3,1c1.1,0.8,1.7,1.9,1.9,3.2C57.8,69.1,57.5,70.6,56.6,72z M61.3,49.4
	c-0.1,0.9-0.3,1.8-0.8,2.6c-0.7,1.2-1.6,2-2.8,2.6c-1,0.5-2.2,0.8-3.3,1c-1.1,0.2-2.2,0.2-3.2,0.2c-3.1,0-6.2,0-9.3,0
	c-0.1,0-0.1,0-0.2,0c0.9-4.2,1.8-8.3,2.7-12.5c0,0,0.1,0,0.1,0c3.3,0,6.6,0,9.8,0c1.3,0,2.7,0.2,3.9,0.7c1.3,0.5,2.3,1.4,2.9,2.8
	C61.3,47.7,61.4,48.6,61.3,49.4z M60.9,36c-1.1,0.5-2.2,0.8-3.3,0.9c-0.9,0.1-1.8,0.2-2.7,0.2c-3.2,0-6.5,0-9.7,0
	c-0.1,0-0.1,0-0.2,0c0.1-0.5,0.2-1.1,0.3-1.6c0.4-2.1,0.9-4.2,1.3-6.2c0.3-1.5,0.6-3,1-4.5c0,0,0-0.1,0-0.1c3.5,0,6.9,0,10.4,0
	c0.3,0,0.7,0.1,1,0.1c1.4,0.2,2.8,0.6,3.9,1.5c0.9,0.8,1.5,1.8,1.6,3c0.2,1.6-0.1,3.1-1,4.5C63,34.7,62.1,35.5,60.9,36z M80.9,66.5
	c-1.1,0.6-2.2,0.9-3.4,1.1c-1.1,0.2-2.1,0.2-3.2,0.2c-3.1,0-6.3,0-9.4,0c-0.1,0-0.2,0-0.3,0c0.9-4.2,1.8-8.3,2.7-12.4
	c0.1,0,0.1,0,0.2,0c3.3,0,6.7,0,10,0c1.5,0,3,0.3,4.4,1.1c1.4,0.8,2.3,2,2.4,3.5C84.6,62.7,83.5,65.1,80.9,66.5z M85.5,46.4
	c-1,0.8-2.2,1.2-3.4,1.5c-1.4,0.3-2.8,0.4-4.2,0.4c-3.1,0-6.2,0-9.3,0c-0.1,0-0.2,0-0.3,0c0.9-4.2,1.8-8.3,2.7-12.5
	c0.1,0,0.1,0,0.2,0c3.3,0,6.5,0,9.8,0c1.5,0,3,0.2,4.3,0.9c1.5,0.7,2.5,1.9,2.7,3.5C88.3,42.7,87.6,44.8,85.5,46.4z"/>
</svg>
