<?xml version="1.0" encoding="iso-8859-1"?>
<!-- Generator: Adobe Illustrator 18.1.1, SVG Export Plug-In . SVG Version: 6.00 Build 0)  -->
<svg version="1.1" id="Layer_1" xmlns="http://www.w3.org/2000/svg" xmlns:xlink="http://www.w3.org/1999/xlink" x="0px" y="0px"
	 viewBox="0 0 100 156.667" style="enable-background:new 0 0 100 156.667;" xml:space="preserve">
<g>
	<path style="fill:#f08817;" d="M87.875,146.471L53.031,42.19c1.734-1.253,2.867-3.287,2.867-5.59c0-3.81-3.089-6.899-6.899-6.899
		s-6.899,3.089-6.899,6.899c0,2.303,1.133,4.337,2.867,5.59L10.125,146.471c-0.273,0.816-0.002,1.681,0.615,2.208
		c0.012,0.014,0.02,0.03,0.033,0.043c0.404,0.432,0.951,0.65,1.499,0.65c0.502,0,1.005-0.183,1.401-0.553l35.687-33.374
		l35.005,33.165c0.397,0.376,0.904,0.562,1.41,0.562c0.022,0,0.043-0.006,0.065-0.006c0.03,0.001,0.059,0.007,0.089,0.007
		c0.216,0,0.435-0.034,0.651-0.106C87.654,148.708,88.234,147.546,87.875,146.471z M33.34,89.942h31.321l1.419,4.248l-16.703,15.621
		L32.154,93.493L33.34,89.942z M40.309,69.084h17.382l5.598,16.755H34.711L40.309,69.084z M49,43.499
		c0.047,0,0.093-0.006,0.14-0.007l7.18,21.489H41.68l7.18-21.489C48.907,43.493,48.953,43.499,49,43.499z M16.395,140.656
		l14.325-42.871l15.656,14.833L16.395,140.656z M67.51,98.471l13.943,41.73l-29.092-27.563L67.51,98.471z"/>
	<path style="fill:#f08817;" d="M33.73,36.18c0,4.396,1.896,8.581,5.203,11.482c0.341,0.299,0.763,0.446,1.183,0.446c0.499,0,0.995-0.207,1.35-0.611
		c0.654-0.745,0.58-1.88-0.165-2.533c-2.53-2.22-3.981-5.421-3.981-8.783c0-5.035,3.206-9.488,7.977-11.081
		c0.94-0.314,1.448-1.331,1.134-2.271c-0.314-0.94-1.332-1.447-2.271-1.134C37.921,23.776,33.73,29.598,33.73,36.18z"/>
	<path style="fill:#f08817;" d="M52.703,25.098c4.771,1.594,7.977,6.047,7.977,11.082c0,3.362-1.451,6.564-3.981,8.783
		c-0.745,0.654-0.819,1.788-0.165,2.533c0.355,0.404,0.851,0.611,1.35,0.611c0.421,0,0.842-0.147,1.184-0.446
		c3.306-2.901,5.203-7.086,5.203-11.482c0-6.581-4.191-12.403-10.43-14.487c-0.94-0.313-1.957,0.194-2.271,1.134
		C51.255,23.767,51.763,24.784,52.703,25.098z"/>
	<path style="fill:#f08817;" d="M25.208,36.278c0,8.017,3.999,15.443,10.697,19.866c0.305,0.201,0.648,0.298,0.987,0.298c0.583,0,1.155-0.284,1.5-0.806
		c0.546-0.827,0.319-1.941-0.509-2.487c-5.689-3.757-9.085-10.064-9.085-16.871c0-8.707,5.545-16.41,13.797-19.166
		c0.94-0.314,1.448-1.331,1.134-2.271c-0.314-0.94-1.332-1.447-2.271-1.134C31.739,16.953,25.208,26.024,25.208,36.278z"/>
	<path style="fill:#f08817;" d="M55.405,17.112c8.252,2.756,13.797,10.458,13.797,19.166c0,6.721-3.33,12.984-8.908,16.752
		c-0.822,0.555-1.038,1.671-0.483,2.492c0.347,0.513,0.913,0.79,1.489,0.79c0.346,0,0.695-0.1,1.003-0.308
		c6.568-4.437,10.488-11.812,10.488-19.727c0-10.254-6.531-19.325-16.25-22.571c-0.939-0.313-1.957,0.194-2.271,1.134
		C53.957,15.781,54.464,16.798,55.405,17.112z"/>
	<path style="fill:#f08817;" d="M32.785,64.869c0.28,0.16,0.586,0.235,0.887,0.235c0.624,0,1.231-0.326,1.562-0.907c0.491-0.862,0.19-1.958-0.672-2.448
		c-9.118-5.193-14.783-14.93-14.783-25.411c0-12.595,8.02-23.736,19.958-27.723c0.94-0.314,1.448-1.331,1.134-2.271
		c-0.314-0.94-1.331-1.447-2.271-1.134C25.195,9.687,16.189,22.196,16.189,36.338C16.189,48.107,22.548,59.039,32.785,64.869z"/>
	<path style="fill:#f08817;" d="M58.266,8.616c11.936,3.988,19.955,15.128,19.955,27.722c0,10.481-5.664,20.218-14.783,25.411
		c-0.862,0.491-1.162,1.587-0.671,2.448c0.331,0.581,0.937,0.907,1.561,0.907c0.301,0,0.607-0.076,0.887-0.235
		c10.237-5.83,16.596-16.762,16.596-28.531c0-14.14-9.005-26.649-22.407-31.127c-0.941-0.313-1.958,0.194-2.271,1.134
		C56.818,7.285,57.326,8.302,58.266,8.616z"/>
</g>
<g>
</g>
<g>
</g>
<g>
</g>
<g>
</g>
<g>
</g>
<g>
</g>
</svg>
