<?xml version="1.0" encoding="utf-8"?>
<!-- Generator: Adobe Illustrator 18.1.1, SVG Export Plug-In . SVG Version: 6.00 Build 0)  -->
<svg version="1.1" id="Layer_1" xmlns="http://www.w3.org/2000/svg" xmlns:xlink="http://www.w3.org/1999/xlink" x="0px" y="0px"
	 viewBox="0 8.7 100 80" enable-background="new 0 8.7 100 80" xml:space="preserve">
<path style="fill:#fc4bd1;" d="M93.1,10.9H6.8c-2.6,0-4.6,2.1-4.6,4.6v56.1c0,2.6,2.1,4.6,4.6,4.6h34.8c-0.4,2.4-1.4,5.9-3.5,7.3c-0.5,0.3-0.8,0.8-0.8,1.3
	c0,0.5,0.4,1,1,1h23.3c0.5,0,1-0.4,1-1c0-0.5-0.3-1-0.8-1.3c-2.2-1.5-3.1-4.9-3.5-7.3h34.8c2.6,0,4.6-2.1,4.6-4.6V15.6
	C97.8,13,95.7,10.9,93.1,10.9z M92.8,66.8H7.1V15.6h85.7V66.8z"/>
</svg>
