<?xml version="1.0" encoding="utf-8"?>
<!-- Generator: Adobe Illustrator 18.1.1, SVG Export Plug-In . SVG Version: 6.00 Build 0)  -->
<svg version="1.1" id="Layer_1" xmlns="http://www.w3.org/2000/svg" xmlns:xlink="http://www.w3.org/1999/xlink" x="0px" y="0px"
	 viewBox="0 0 100 100" enable-background="new 0 0 100 100" xml:space="preserve">
<g>
	<path style="fill:#fc4bd1;" d="M50,99.6c-6.9,0-13.3-1.3-19.3-3.9c-6-2.6-11.3-6.1-15.7-10.6c-4.5-4.5-8-9.7-10.6-15.7c-2.6-6-3.9-12.5-3.9-19.3
		c0-6.9,1.3-13.3,3.9-19.3C7,24.7,10.5,19.5,15,15c4.5-4.5,9.7-8.1,15.7-10.6c6-2.6,12.5-3.9,19.3-3.9c6.9,0,13.3,1.3,19.3,3.9
		c6,2.6,11.3,6.1,15.7,10.6c4.5,4.5,8,9.8,10.6,15.8c2.6,6,3.9,12.5,3.9,19.3c0,6.9-1.3,13.3-3.9,19.3c-2.6,6-6.1,11.3-10.6,15.7
		c-4.5,4.5-9.7,8-15.7,10.6C63.3,98.3,56.9,99.6,50,99.6z M37.2,51.8h7.3V74h9.2V51.8h9.2v-9.2h-9.2v-4.7c0-0.8,0.2-1.4,0.6-2
		c0.4-0.6,0.8-0.8,1.3-0.8h7.3v-9h-7.3c-3,0-5.6,1.2-7.8,3.5c-2.2,2.4-3.2,5.2-3.2,8.5v4.5h-7.3V51.8z"/>
</g>
</svg>
