<?xml version="1.0" encoding="utf-8"?>
<!-- Generator: Adobe Illustrator 18.1.1, SVG Export Plug-In . SVG Version: 6.00 Build 0)  -->
<svg version="1.1" id="Layer_1" xmlns="http://www.w3.org/2000/svg" xmlns:xlink="http://www.w3.org/1999/xlink" x="0px" y="0px"
	 viewBox="0 0 100 100" enable-background="new 0 0 100 100" xml:space="preserve">
<g>
	<polygon style="fill:#fc4bd1;" points="47.3,41.6 34,56.4 46.1,49.5 52.3,56.4 65.7,41.6 53.7,48.5 	"/>
	<path style="fill:#fc4bd1;" d="M95.6,30.8C93,24.8,89.5,19.5,85,15c-4.4-4.5-9.7-8-15.7-10.6c-6-2.6-12.4-3.9-19.3-3.9c-6.8,0-13.3,1.3-19.3,3.9
		C24.7,6.8,19.5,10.5,15,15S7,24.7,4.4,30.8c-2.6,6-3.9,12.4-3.9,19.3c0,6.8,1.3,13.3,3.9,19.3C7,75.3,10.5,80.5,15,85
		c4.4,4.5,9.7,8,15.7,10.6c6,2.6,12.4,3.9,19.3,3.9s13.3-1.3,19.3-3.9C75.3,93,80.5,89.5,85,85c4.5-4.4,8-9.7,10.6-15.7
		c2.6-6,3.9-12.4,3.9-19.3C99.5,43.2,98.2,36.8,95.6,30.8z M49.9,71.8c-2.4,0-4.8-0.3-7-1l-8.3,4.8v-9c-5.5-4.3-9.1-10.9-9.1-18.3
		c0-13,10.9-23.5,24.4-23.5s24.4,10.5,24.4,23.5S63.4,71.8,49.9,71.8z"/>
</g>
</svg>
