<?xml version="1.0" encoding="utf-8"?>
<!-- Generator: Adobe Illustrator 18.1.1, SVG Export Plug-In . SVG Version: 6.00 Build 0)  -->
<svg version="1.1" id="Layer_1" xmlns="http://www.w3.org/2000/svg" xmlns:xlink="http://www.w3.org/1999/xlink" x="0px" y="0px"
	 viewBox="0 0 100 100" enable-background="new 0 0 100 100" xml:space="preserve">
<g>
	<path style="fill:#fc4bd1;" d="M39.6,57.2c-6,0.7-10.4,3.6-10.1,8.2c1.3,9.7,15,9.9,19.7,6.6v0c4.3-3.3,3.3-8.3,0-11.5C47.1,58.5,44.7,56.6,39.6,57.2z"/>
	<path style="fill:#fc4bd1;" d="M95.6,30.8C93,24.8,89.5,19.5,85,15c-4.4-4.5-9.7-8-15.7-10.6c-6-2.6-12.4-3.9-19.3-3.9c-6.8,0-13.3,1.3-19.3,3.9
		C24.7,6.8,19.5,10.5,15,15S7,24.7,4.4,30.8c-2.6,6-3.9,12.4-3.9,19.3c0,6.8,1.3,13.3,3.9,19.3C7,75.3,10.5,80.5,15,85
		c4.4,4.5,9.7,8,15.7,10.6c6,2.6,12.4,3.9,19.3,3.9s13.3-1.3,19.3-3.9C75.3,93,80.5,89.5,85,85c4.5-4.4,8-9.7,10.6-15.7
		c2.6-6,3.9-12.4,3.9-19.3C99.5,43.2,98.2,36.8,95.6,30.8z M47.5,46.1c-4.4,5.4,9.4,8.1,8.7,17.2c0,8.3-6.9,13.7-17.7,13.7
		c-12,0-17.8-7.6-13.3-15.2c4.7-6.8,13.9-7.3,18.4-6.7c-1.3-1.4-4.4-3.9-2.2-8.1c-10.2,1.3-13.4-5.1-13.9-10
		c-0.9-8.4,6.3-14.4,13.7-14.5h16.4C57,23.2,54.3,25,53.6,25l-4.3,0C60.3,35.5,49.6,44.3,47.5,46.1z M71.9,48.9v7.5l-3.7,0l0-7.6
		l-7.5,0v-3.8h7.4v-7.5h3.8v7.5l7.5,0l0,3.8H71.9z"/>
	<path style="fill:#fc4bd1;" d="M39.8,25.1c-4.3,0-6.5,3.1-6.7,7.6c-0.3,8.3,7.2,15.9,13.1,10.9C51.2,39.5,46.6,25.1,39.8,25.1z"/>
</g>
</svg>
