<?xml version="1.0" encoding="iso-8859-1"?>
<!-- Generator: Adobe Illustrator 18.1.1, SVG Export Plug-In . SVG Version: 6.00 Build 0)  -->
<svg version="1.1" id="Layer_1" xmlns="http://www.w3.org/2000/svg" xmlns:xlink="http://www.w3.org/1999/xlink" x="0px" y="0px"
	 viewBox="0 0 100 156.667" style="enable-background:new 0 0 100 156.667;" xml:space="preserve">
<g>
	<path style="fill:#a4a4a4;" d="M82.448,30.123c-8.73-8.73-20.238-13.538-32.403-13.538c-0.532,0-1.07,0.009-1.6,0.027
		C23.751,17.484,4.409,37.528,4.409,62.245c0,9.578,2.897,18.699,8.378,26.377l0.025,0.036l31.079,51.28
		c1.376,2.236,3.78,3.567,6.435,3.567c2.654,0,5.058-1.331,6.431-3.56l30.947-51.579l0.022-0.032
		c5.295-7.675,8.093-16.599,8.093-25.807C95.818,50.253,91.07,38.745,82.448,30.123z M48.629,23.339l0.026-0.001h1.388
		c10.381,0,20.157,4.136,27.529,11.645c7.34,7.341,11.379,17.12,11.379,27.546c0,7.839-2.372,15.401-6.86,21.868l-0.063,0.09
		l-0.065,0.065l-0.109,0.109l-0.079,0.132L50.33,137.441L18.59,85.07l-0.078-0.128l-0.106-0.106l-0.069-0.069l-0.062-0.087
		c-4.672-6.613-7.141-14.371-7.141-22.435C11.135,41.274,27.604,24.184,48.629,23.339z"/>
	<path style="fill:#a4a4a4;" d="M50.043,81.019c10.663,0,19.338-8.675,19.338-19.339s-8.675-19.339-19.338-19.339
		S30.705,51.016,30.705,61.68S39.38,81.019,50.043,81.019z M50.043,49.068c6.954,0,12.612,5.658,12.612,12.612
		s-5.658,12.612-12.612,12.612c-6.954,0-12.612-5.658-12.612-12.612S43.089,49.068,50.043,49.068z"/>
</g>
<g>
</g>
<g>
</g>
<g>
</g>
<g>
</g>
<g>
</g>
<g>
</g>
</svg>
