<?xml version="1.0" encoding="utf-8"?>
<!-- Generator: Adobe Illustrator 18.1.1, SVG Export Plug-In . SVG Version: 6.00 Build 0)  -->
<svg version="1.1" id="Layer_1" xmlns="http://www.w3.org/2000/svg" xmlns:xlink="http://www.w3.org/1999/xlink" x="0px" y="0px"
	 viewBox="0 0 100 100" enable-background="new 0 0 100 100" xml:space="preserve">
<g>
	<path style="fill:#fc4bd1;" fill="#020202" d="M99.5,49.9c0.3,27.3-22.1,49.6-49.4,49.6c-27.3,0-49.6-22.2-49.6-49.6c0-27.3,22.2-49.1,49.6-49.4
		C77,0.2,99.2,22.5,99.5,49.9z M29.9,23c-3.8,0-6.9,3.1-6.9,6.9v40.1c0,3.8,3.1,6.9,6.9,6.9h40.1c3.8,0,6.9-3.1,6.9-6.9V29.9
		c0-3.8-3.1-6.9-6.9-6.9H29.9z M70.9,68.7c0,1.1-1,2.1-2.1,2.1H31.2c-1.3,0-2.3-1-2.3-2.1V45.8H34c-0.6,1.4-0.7,3-0.7,4.6
		c0,9,7.5,16.2,16.8,16.2c9.3,0,16.8-7.2,16.8-16.2c0-1.7-0.1-3.2-0.7-4.6h4.8V68.7z M60.9,49.9c0,5.8-4.8,10.4-10.8,10.4
		c-6.1,0-10.8-4.6-10.8-10.4c0-5.9,4.8-10.6,10.8-10.6C56.1,39.4,60.9,44,60.9,49.9z M68.5,28.9c1.3,0,2.4,1.1,2.4,2.4v5.9
		c0,1.3-1.1,2.4-2.4,2.4h-6.2c-1.3,0-2.4-1.1-2.4-2.4v-5.9c0-1.3,1.1-2.4,2.4-2.4H68.5z"/>
</g>
</svg>
