<?xml version="1.0" encoding="iso-8859-1"?>
<!-- Generator: Adobe Illustrator 18.1.1, SVG Export Plug-In . SVG Version: 6.00 Build 0)  -->
<svg version="1.1" id="Layer_1" xmlns="http://www.w3.org/2000/svg" xmlns:xlink="http://www.w3.org/1999/xlink" x="0px" y="0px"
	 viewBox="0 0 100 130.667" style="enable-background:new 0 0 100 130.667;" xml:space="preserve">
<path style="fill:#56ca31;" d="M85.869,9.361H13.012c-3.083,0-5.582,2.499-5.582,5.582v98.956c0,3.083,2.499,5.582,5.582,5.582h72.857
	c3.083,0,5.582-2.499,5.582-5.582V14.943C91.451,11.86,88.952,9.361,85.869,9.361z M45.19,12.5h8.5c0.412,0,0.75,0.337,0.75,0.75
	c0,0.412-0.338,0.75-0.75,0.75h-8.5c-0.412,0-0.75-0.338-0.75-0.75C44.44,12.837,44.778,12.5,45.19,12.5z M49.44,115.64
	c-1.657,0-3-1.343-3-3s1.343-3,3-3s3,1.343,3,3S51.097,115.64,49.44,115.64z M84.073,106.824H14.807V17.25h69.266V106.824z"/>
<g>
</g>
<g>
</g>
<g>
</g>
<g>
</g>
<g>
</g>
<g>
</g>
</svg>
