<?xml version="1.0" encoding="iso-8859-1"?>
<!-- Generator: Adobe Illustrator 18.1.1, SVG Export Plug-In . SVG Version: 6.00 Build 0)  -->
<svg version="1.1" id="Layer_1" xmlns="http://www.w3.org/2000/svg" xmlns:xlink="http://www.w3.org/1999/xlink" x="0px" y="0px"
	 viewBox="0 0 100 130.667" style="enable-background:new 0 0 100 130.667;" xml:space="preserve">
<path style="fill:#56ca31;" d="M74.067,9.861H24.433c-3.915,0-7.089,3.174-7.089,7.089v94.045c0,3.915,3.174,7.089,7.089,7.089h49.634
	c3.915,0,7.089-3.174,7.089-7.089V16.95C81.156,13.035,77.982,9.861,74.067,9.861z M43.853,13.847h10.794
	c0.524,0,0.952,0.429,0.952,0.952c0,0.524-0.429,0.952-0.952,0.952H43.853c-0.524,0-0.952-0.429-0.952-0.952
	C42.901,14.276,43.329,13.847,43.853,13.847z M49.25,114.104c-2.104,0-3.81-1.706-3.81-3.81c0-2.104,1.706-3.81,3.81-3.81
	s3.81,1.706,3.81,3.81C53.06,112.399,51.354,114.104,49.25,114.104z M74.171,102.926H24.329V19.879h49.843V102.926z"/>
<g>
</g>
<g>
</g>
<g>
</g>
<g>
</g>
<g>
</g>
<g>
</g>
</svg>
