<?xml version="1.0" encoding="utf-8"?>
<!-- Generator: Adobe Illustrator 18.1.1, SVG Export Plug-In . SVG Version: 6.00 Build 0)  -->
<svg version="1.1" id="Layer_1" xmlns="http://www.w3.org/2000/svg" xmlns:xlink="http://www.w3.org/1999/xlink" x="0px" y="0px"
	 viewBox="0 0 100 100" enable-background="new 0 0 100 100" xml:space="preserve">
<path style="fill:#fc4bd1;" d="M95.6,30.8C93,24.8,89.5,19.5,85,15c-4.4-4.5-9.7-8-15.7-10.6c-6-2.6-12.4-3.9-19.3-3.9c-6.8,0-13.3,1.3-19.3,3.9
	C24.7,6.8,19.5,10.5,15,15S7,24.7,4.4,30.8c-2.6,6-3.9,12.4-3.9,19.3c0,6.8,1.3,13.3,3.9,19.3C7,75.3,10.5,80.5,15,85
	c4.4,4.5,9.7,8,15.7,10.6c6,2.6,12.4,3.9,19.3,3.9s13.3-1.3,19.3-3.9C75.3,93,80.5,89.5,85,85c4.5-4.4,8-9.7,10.6-15.7
	c2.6-6,3.9-12.4,3.9-19.3C99.5,43.2,98.2,36.8,95.6,30.8z M50.5,18.7c9.6,0,17.3,7.8,17.3,17.3c0,1.5-0.2,3-0.6,4.5
	c-1.2-0.3-2.5-0.4-3.7-0.4c-5.5,0-10.7,2.5-14.2,6.8l0,0l0,0c-3.4-3.4-8.1-5.4-12.9-5.4c-0.7,0-1.5,0.1-2.3,0.2
	c-0.6-1.8-1-3.7-1-5.6C33.2,26.5,41,18.7,50.5,18.7z M47.7,52.6c0-0.1,0.1-0.1,0.1-0.2c0.2-0.5,0.4-1,0.6-1.5c0,0,0-0.1,0-0.1
	c0.3-0.5,0.6-1,0.9-1.5c0-0.1,0.1-0.1,0.1-0.2c0,0,0,0,0,0c0,0,0,0,0,0c0.1,0.1,0.2,0.2,0.3,0.3c0.1,0.1,0.1,0.2,0.2,0.3
	c0.5,0.7,1,1.5,1.4,2.3c0.1,0.1,0.1,0.2,0.1,0.3c0.1,0.1,0.1,0.3,0.2,0.4c0,0,0,0,0,0c0,0,0,0,0,0c-0.1,0-0.2,0-0.3,0
	c-0.1,0-0.2,0-0.3,0c-0.4,0-0.8,0-1.2,0c0,0,0,0-0.1,0c-0.4,0-0.8-0.1-1.3-0.1c-0.1,0-0.2,0-0.3,0C48,52.7,47.9,52.7,47.7,52.6
	C47.7,52.7,47.7,52.6,47.7,52.6C47.7,52.6,47.7,52.6,47.7,52.6z M47.3,50.2c0,0,0,0.1-0.1,0.1c-0.2,0.4-0.4,0.8-0.5,1.1
	c-0.1,0.1-0.1,0.3-0.2,0.4c-0.1,0.2-0.1,0.4-0.2,0.5c-5-1.3-9.1-4.7-11.2-9.4c0.4,0,0.9-0.1,1.3-0.1c4.6,0,9,1.9,12.1,5.2
	c-0.1,0.2-0.2,0.4-0.3,0.5c-0.1,0.1-0.2,0.2-0.2,0.4C47.7,49.4,47.5,49.8,47.3,50.2z M51.1,49c-0.1-0.1-0.2-0.3-0.3-0.4
	c-0.1-0.2-0.3-0.4-0.4-0.6c3.2-4,8.1-6.4,13.2-6.4c0.9,0,1.9,0.1,2.8,0.2c-2.1,5.7-7.1,9.9-13.1,10.9c-0.1-0.2-0.2-0.4-0.3-0.7
	c-0.1-0.1-0.1-0.3-0.2-0.4c-0.2-0.5-0.5-0.9-0.7-1.3c0,0-0.1-0.1-0.1-0.1C51.6,49.7,51.4,49.3,51.1,49z M36.4,77.1
	c-9.6,0-17.3-7.8-17.3-17.3c0-8.5,6.2-15.7,14.5-17.1c2.1,5.5,6.7,9.5,12.4,11l0,0l0,0c-0.4,1.5-0.6,3.1-0.6,4.7
	c0,4.5,1.7,8.8,4.6,12.1C46.7,74.6,41.7,77.1,36.4,77.1z M46.7,58.4c0-1.5,0.2-3,0.6-4.4c0.4,0.1,0.8,0.1,1.3,0.2c0,0,0,0,0,0
	c0.6,0.1,1.1,0.1,1.7,0.1c0.1,0,0.1,0,0.2,0c0.1,0,0.2,0,0.3,0c0.2,0,0.4,0,0.6,0c0.2,0,0.4,0,0.7,0c0.1,0,0.2,0,0.3,0
	c0.6,1.8,1,3.7,1,5.6c0,3.3-1,6.5-2.8,9.2C48.1,66,46.7,62.3,46.7,58.4z M63.6,75.7c-4.7,0-9.2-1.9-12.4-5.3
	c2.3-3.1,3.5-6.8,3.5-10.7c0-2-0.3-3.9-1-5.8l0,0l0,0c6.6-1.2,12.1-5.9,14.1-12.4c7.6,1.9,13.1,8.9,13.1,16.8
	C80.9,67.9,73.1,75.7,63.6,75.7z"/>
</svg>
