<?xml version="1.0" encoding="utf-8"?>
<!-- Generator: Adobe Illustrator 18.1.1, SVG Export Plug-In . SVG Version: 6.00 Build 0)  -->
<svg version="1.1" id="Layer_1" xmlns="http://www.w3.org/2000/svg" xmlns:xlink="http://www.w3.org/1999/xlink" x="0px" y="0px"
	 viewBox="0 0 100 100" enable-background="new 0 0 100 100" xml:space="preserve">
<path style="fill:#fc4bd1;" d="M95.6,30.8C93,24.8,89.5,19.5,85,15c-4.4-4.5-9.7-8-15.7-10.6c-6-2.6-12.4-3.9-19.3-3.9c-6.8,0-13.3,1.3-19.3,3.9
	C24.7,6.8,19.5,10.5,15,15S7,24.7,4.4,30.8c-2.6,6-3.9,12.4-3.9,19.3c0,6.8,1.3,13.3,3.9,19.3C7,75.3,10.5,80.5,15,85
	c4.4,4.5,9.7,8,15.7,10.6c6,2.6,12.4,3.9,19.3,3.9s13.3-1.3,19.3-3.9C75.3,93,80.5,89.5,85,85c4.5-4.4,8-9.7,10.6-15.7
	c2.6-6,3.9-12.4,3.9-19.3C99.5,43.2,98.2,36.8,95.6,30.8z M48.2,81.4c-1.4-1.6-2.7-3-4-4.4c-1.4-1.6-2.8-3.2-4.2-4.8
	c-0.3-0.4-0.7-0.8-0.8-1.2c-0.3-0.7,0-1.5,0.8-2.1c2.5-2.2,4.9-4.5,6.5-7.5c1-1.8,2.1-3.7,2.2-5.8c0-0.2,0.2-0.4,0.2-0.6
	c0.1-0.6,0.2-1.2,0.2-1.9c-0.6-0.1-1-0.2-1.4-0.2c-3.4,0-6.8-0.1-10.1,0c-1.6,0.1-3.1-1.2-3-2.8c0-0.4,0-0.9,0-1.3
	c0-7.8,0-15.7,0-23.5c0-0.5,0-1.1,0.1-1.6c0.2-1.2,1.3-2.3,2.6-2.3c0.2,0,0.4,0,0.6,0c8.2,0,16.3,0.1,24.5,0c1.7,0,3.4,1.7,3.4,3.4
	c-0.1,8.2,0,16.3-0.1,24.5c0,1.4-0.3,2.8-0.5,4.2c-0.2,2.1-0.7,4.2-1.2,6.2c-0.9,3.3-2.2,6.4-3.9,9.4c-2.1,3.7-4.8,7.1-8,9.9
	c-0.8,0.7-1.7,1.5-2.6,2.1C49,81.1,48.6,81.2,48.2,81.4z"/>
</svg>
