<?xml version="1.0" encoding="utf-8"?>
<!-- Generator: Adobe Illustrator 18.1.1, SVG Export Plug-In . SVG Version: 6.00 Build 0)  -->
<svg version="1.1" id="Layer_1" xmlns="http://www.w3.org/2000/svg" xmlns:xlink="http://www.w3.org/1999/xlink" x="0px" y="0px"
	 viewBox="0 0 100 100" enable-background="new 0 0 100 100" xml:space="preserve">
<g>
	<path style="fill:#fc4bd1;" d="M56.8,40c-0.8-0.3-1.4,0.3-1.5,1.2c-0.1,0.5,0,1,0,1.5c0,1.6,0,3.1,0,4.7c-0.1,0-0.3,0-0.4,0.1c-0.2-0.2-0.4-0.4-0.6-0.7
		c-1.5-2-3-4.1-4.6-6.1c-0.4-0.4-1.2-0.7-1.8-0.6c-0.4,0.1-0.8,0.9-0.9,1.4c-0.1,3.5-0.1,6.9,0,10.4c0,0.5,0.7,1.4,1.2,1.5
		c0.9,0.2,1.5-0.5,1.5-1.4c0.1-0.8,0-1.6,0-2.4c0-1.2,0-2.5,0-3.7c0.7,0.4,1,0.7,1.3,1.1c1.4,1.9,2.8,3.8,4.3,5.7
		c0.3,0.4,1.1,0.7,1.6,0.6c0.4-0.1,0.9-0.8,0.9-1.3c0.1-3.6,0.1-7.1,0-10.7C58,40.8,57.3,40.1,56.8,40z"/>
	<path style="fill:#fc4bd1;" d="M44.9,41.7c0-1-0.3-1.8-1.5-1.8c-1.2,0-1.3,0.8-1.3,1.7c0,3.3,0,6.6,0,10c0,1,0.3,1.8,1.3,1.8c1.1,0,1.5-0.7,1.5-1.8
		c0-1.6,0-3.3,0-4.9C44.9,45,44.9,43.3,44.9,41.7z"/>
	<path style="fill:#fc4bd1;" d="M38.8,50.7c-1.2,0-2.4,0-3.7,0c0-3.2,0-6.1,0-9c0-1-0.2-1.8-1.5-1.8c-1.1,0-1.4,0.8-1.4,1.7c0,3.3,0,6.7,0,10
		c0,1.3,0.6,1.9,1.9,1.9c1.5,0,3.1,0,4.6,0c0.9,0,1.7-0.3,1.7-1.4C40.5,51,39.7,50.7,38.8,50.7z"/>
	<path style="fill:#fc4bd1;" d="M66.6,48c1,0,1.9-0.2,1.8-1.4c0-1.1-0.9-1.3-1.8-1.3c-1.2,0-2.3,0-3.5,0v-2.8c1.4,0,2.7,0.1,3.9-0.1
		c0.5-0.1,1.3-0.8,1.4-1.3c0.2-0.9-0.5-1.3-1.4-1.3c-1.7,0-3.5,0-5.2,0c-1.2,0-1.6,0.6-1.6,1.7c0,3.4,0,6.7,0,10.1
		c0,1.3,0.6,1.8,1.8,1.8c1.5,0,3.1,0,4.6,0c1,0,1.8-0.3,1.8-1.5c0-1.1-0.8-1.3-1.8-1.3c-1.2,0-2.3,0-3.5,0V48
		C64.4,48,65.5,48,66.6,48z"/>
	<path style="fill:#fc4bd1;" d="M95.6,30.8C93,24.8,89.5,19.5,85,15c-4.4-4.5-9.7-8-15.7-10.6c-6-2.6-12.4-3.9-19.3-3.9c-6.8,0-13.3,1.3-19.3,3.9
		C24.7,6.8,19.5,10.5,15,15S7,24.7,4.4,30.8c-2.6,6-3.9,12.4-3.9,19.3c0,6.8,1.3,13.3,3.9,19.3C7,75.3,10.5,80.5,15,85
		c4.4,4.5,9.7,8,15.7,10.6c6,2.6,12.4,3.9,19.3,3.9s13.3-1.3,19.3-3.9C75.3,93,80.5,89.5,85,85c4.5-4.4,8-9.7,10.6-15.7
		c2.6-6,3.9-12.4,3.9-19.3C99.5,43.2,98.2,36.8,95.6,30.8z M72.9,58.9c-2.1,2.3-4.3,4.6-6.8,6.5c-4.9,3.6-10,6.8-15.1,10.1
		c-0.9,0.6-2.1,0.5-3.2,0.7c0-1-0.3-2.1-0.1-3.1c0.6-3.7,0.3-4.2-3.4-4.9c-5.2-0.9-10-2.8-14.2-6.2c-10.9-8.9-10.8-23.1,0.3-31.8
		c6.3-4.9,13.7-6.8,21.6-6.3c7.1,0.4,13.4,2.7,18.7,7.4c4.5,4,7,8.9,7.1,14.4C77.9,51.2,76.1,55.3,72.9,58.9z"/>
</g>
</svg>
