<?xml version="1.0" encoding="utf-8"?>
<!-- Generator: Adobe Illustrator 18.1.1, SVG Export Plug-In . SVG Version: 6.00 Build 0)  -->
<svg version="1.1" id="Layer_1" xmlns="http://www.w3.org/2000/svg" xmlns:xlink="http://www.w3.org/1999/xlink" x="0px" y="0px"
	 viewBox="0 0 100 100" enable-background="new 0 0 100 100" xml:space="preserve">
<path style="fill:#fc4bd1;" d="M95.6,30.8C93,24.8,89.5,19.5,85,15c-4.4-4.5-9.7-8-15.7-10.6c-6-2.6-12.4-3.9-19.3-3.9c-6.8,0-13.3,1.3-19.3,3.9
	C24.7,6.8,19.5,10.5,15,15S7,24.7,4.4,30.8c-2.6,6-3.9,12.4-3.9,19.3c0,6.8,1.3,13.3,3.9,19.3C7,75.3,10.5,80.5,15,85
	c4.4,4.5,9.7,8,15.7,10.6c6,2.6,12.4,3.9,19.3,3.9s13.3-1.3,19.3-3.9C75.3,93,80.5,89.5,85,85c4.5-4.4,8-9.7,10.6-15.7
	c2.6-6,3.9-12.4,3.9-19.3C99.5,43.2,98.2,36.8,95.6,30.8z M26.8,24.9c0-3.4,2.8-6.1,6.1-6.1c3.4,0,6.1,2.7,6.1,6.1S36.3,31,32.9,31
	C29.5,31,26.8,28.3,26.8,24.9L26.8,24.9z M26.8,71.4V36.3h12.3v35.1H26.8z M79.4,71.4H68.9V54.3c0-4.1-0.4-9.3-6-9.3
	c-5.7,0-6.5,4.4-6.5,9v17.4H46.1V36.3h9.8V41H56c1.5-2.8,5-4.7,10.3-4.7c11,0,13.1,6.3,13.1,15.8V71.4z"/>
</svg>
