<?xml version="1.0" encoding="iso-8859-1"?>
<!-- Generator: Adobe Illustrator 18.1.1, SVG Export Plug-In . SVG Version: 6.00 Build 0)  -->
<svg version="1.1" id="Layer_1" xmlns="http://www.w3.org/2000/svg" xmlns:xlink="http://www.w3.org/1999/xlink" x="0px" y="0px"
	 viewBox="0 0 100 121.736" style="enable-background:new 0 0 100 121.736;" xml:space="preserve">
<g>
	<g>
		<g>
			<path style="fill:#039fda;" d="M81.466,17.999c0.572,0,0.944,0.602,0.687,1.113L61.1,54.87c-1.946,3.882-1.946,8.455,0,12.338l21.054,35.758
				c0.256,0.511-0.116,1.113-0.687,1.113H19.105c-0.572,0-0.944-0.602-0.687-1.113l21.054-35.758c1.946-3.882,1.945-8.455,0-12.338
				L18.418,19.112c-0.256-0.511,0.116-1.113,0.687-1.113H81.466 M81.466,14.864H19.105c-1.364,0-2.605,0.693-3.322,1.853
				c-0.716,1.16-0.779,2.581-0.168,3.8l0.047,0.095l0.054,0.091l20.996,35.66c1.436,2.935,1.436,6.416,0,9.351l-20.996,35.661
				l-0.054,0.091l-0.047,0.095c-0.611,1.219-0.548,2.64,0.168,3.8c0.716,1.16,1.958,1.853,3.322,1.853h62.361
				c1.364,0,2.605-0.693,3.322-1.853c0.716-1.16,0.779-2.581,0.168-3.8l-0.047-0.095l-0.054-0.091L63.859,65.714
				c-1.436-2.935-1.436-6.416,0-9.351l20.996-35.66l0.054-0.091l0.047-0.095c0.611-1.219,0.548-2.64-0.168-3.8
				C84.072,15.556,82.83,14.864,81.466,14.864L81.466,14.864z"/>
		</g>
		<path style="fill:#039fda;" d="M76.389,21.134H24.182c-0.572,0-0.944,0.602-0.687,1.113L42.978,54.87c0.019,0.039,0.039,0.078,0.059,0.116
			c2.984,5.745,11.512,5.745,14.496,0c0.02-0.039,0.04-0.078,0.059-0.116l19.483-32.623C77.332,21.736,76.96,21.134,76.389,21.134z"
			/>
		<path style="fill:#039fda;" d="M76.389,102.01H24.182c-0.572,0-0.944-0.602-0.687-1.113l19.483-11.59c0.019-0.039,0.022-0.093,0.059-0.116
			c5.156-3.266,9.598-2.743,14.496,0c0.038,0.021,0.04,0.078,0.059,0.116l19.483,11.59C77.332,101.407,76.96,102.01,76.389,102.01z"
			/>
	</g>
	<path style="fill:#039fda;" d="M85.692,11.99H13.308c-1.217,0-2.204-0.987-2.204-2.204V7.284c0-1.217,0.987-2.204,2.204-2.204h72.384
		c1.217,0,2.204,0.987,2.204,2.204v2.502C87.896,11.003,86.909,11.99,85.692,11.99z"/>
	<path style="fill:#039fda;" d="M85.692,117.405H13.308c-1.217,0-2.204-0.987-2.204-2.204v-2.502c0-1.217,0.987-2.204,2.204-2.204h72.384
		c1.217,0,2.204,0.987,2.204,2.204v2.502C87.896,116.418,86.909,117.405,85.692,117.405z"/>
</g>
<g>
</g>
<g>
</g>
<g>
</g>
<g>
</g>
<g>
</g>
<g>
</g>
</svg>
