<?xml version="1.0" encoding="utf-8"?>
<!-- Generator: Adobe Illustrator 18.1.1, SVG Export Plug-In . SVG Version: 6.00 Build 0)  -->
<svg version="1.1" id="Layer_1" xmlns="http://www.w3.org/2000/svg" xmlns:xlink="http://www.w3.org/1999/xlink" x="0px" y="0px"
	 viewBox="0 0 100 100" enable-background="new 0 0 100 100" xml:space="preserve">
<path style="fill:#fc4bd1;" d="M95.6,30.8C93,24.8,89.5,19.5,85,15c-4.4-4.5-9.7-8-15.7-10.6c-6-2.6-12.4-3.9-19.3-3.9c-6.8,0-13.3,1.3-19.3,3.9
	C24.7,6.8,19.5,10.5,15,15S7,24.7,4.4,30.8c-2.6,6-3.9,12.4-3.9,19.3c0,6.8,1.3,13.3,3.9,19.3C7,75.3,10.5,80.5,15,85
	c4.4,4.5,9.7,8,15.7,10.6c6,2.6,12.4,3.9,19.3,3.9s13.3-1.3,19.3-3.9C75.3,93,80.5,89.5,85,85c4.5-4.4,8-9.7,10.6-15.7
	c2.6-6,3.9-12.4,3.9-19.3C99.5,43.2,98.2,36.8,95.6,30.8z M76.8,69h-6.6V48c0-7.1-2.6-11.4-8.1-11.4c-3.9,0-6.9,2.8-8,6.1
	c-0.3,0.9-0.5,2.2-0.5,3.4v23h-6.6V46.7c0-5.9-2.6-10.2-7.8-10.2c-4.2,0-7.3,3.4-8.4,6.8c-0.4,1-0.5,2.2-0.5,3.3V69h-6.6V41.9
	c0-3.8-0.1-7-0.3-10.1h5.9l0.3,6h0.2c2.1-3.5,5.6-6.8,11.7-6.8c5.1,0,8.9,3.1,10.6,7.5h0.2c1.2-2.1,2.6-3.7,4.2-4.8
	c2.2-1.7,4.7-2.6,8.2-2.6c4.9,0,12.3,3.2,12.3,16.1V69z"/>
</svg>
