<?xml version="1.0" encoding="utf-8"?>
<!-- Generator: Adobe Illustrator 18.1.1, SVG Export Plug-In . SVG Version: 6.00 Build 0)  -->
<svg version="1.1" id="Layer_1" xmlns="http://www.w3.org/2000/svg" xmlns:xlink="http://www.w3.org/1999/xlink" x="0px" y="0px"
	 viewBox="0 0 200 100" enable-background="new 0 0 200 100" xml:space="preserve">
<path style="fill:#56ca31;" d="M89.7,33.3c0.5-0.7,1.7-1,1.7-1l33.4-6.8c0,0,1.2-0.3,2,0.4c0.7,0.6,0.6,2.1,0.6,2.1v32.4c-0.1,1.5-1.1,2.5-2.2,2.5
	c-5.1,0-11.5-0.6-15.7,2.3c-3.9,2.7-4.4,7-4,9.8c0.7,5.5,5.6,8.7,10.6,8.7c1.9,0,5.9,0.2,8.3-0.5c7.5-2.3,8.7-6.7,8.7-14.5V8.9
	c0-3.3-1.5-4.9-5.3-4.1c-10.2,2.1-32.8,6.4-41.1,8.6c-1.6,0.4-3.6,1.6-3.6,4.4v51.9C83,71.5,81.5,73,79.8,73c-5,0-9.4-0.8-14,1.6
	c-3.3,1.7-4.9,5.1-4.9,9c0,5.5,4.7,9.6,9.5,9.9c1.8,0.1,6.1,0.4,9.2-0.4c6.9-2,9.7-7.4,9.7-14.4V35.5C89.2,35.5,89.1,34.2,89.7,33.3
	z"/>
</svg>
