<?xml version="1.0" encoding="utf-8"?>
<!-- Generator: Adobe Illustrator 18.1.1, SVG Export Plug-In . SVG Version: 6.00 Build 0)  -->
<svg version="1.1" id="Layer_1" xmlns="http://www.w3.org/2000/svg" xmlns:xlink="http://www.w3.org/1999/xlink" x="0px" y="0px"
	 viewBox="0 0 100 100" enable-background="new 0 0 100 100" xml:space="preserve">
<g>
	<path style="fill:#fc4bd1;" d="M95.6,30.8C93,24.8,89.5,19.5,85,15c-4.4-4.5-9.7-8-15.7-10.6c-6-2.6-12.4-3.9-19.3-3.9c-6.8,0-13.3,1.3-19.3,3.9
		C24.7,6.8,19.5,10.5,15,15S7,24.7,4.4,30.8c-2.6,6-3.9,12.4-3.9,19.3c0,6.8,1.3,13.3,3.9,19.3C7,75.3,10.5,80.5,15,85
		c4.4,4.5,9.7,8,15.7,10.6c6,2.6,12.4,3.9,19.3,3.9s13.3-1.3,19.3-3.9C75.3,93,80.5,89.5,85,85c4.5-4.4,8-9.7,10.6-15.7
		c2.6-6,3.9-12.4,3.9-19.3C99.5,43.2,98.2,36.8,95.6,30.8z M74.4,65.8c-4.9,6.8-11.4,11-19.7,11.8C43.1,78.7,34.1,74.1,27.9,64
		c-6.5-10.5-4.9-24.8,3.4-33.8c4.3-4.6,9.5-7.6,15.6-8.6h0c0,0,0.1,0,0.3-0.1c0,0,0,0,0,0c0.1,0,0.2,0,0.3,0c0.1,0,0.2,0,0.3,0
		c0.1,0,0.1,0,0.2,0c1.4-0.2,3.7-0.4,5.7-0.2c0.1,0,0.2,0,0.3,0h0c0.8,0.2,1.5,0.7,2,1.5c0.9,1.7,1.8,3.5,2.6,5.2c0,0.1,0,0.1,0,0.1
		c-2.1-0.3-4.2-0.8-6.3-0.9c-5.1-0.3-9.8,1.3-13.8,4.4c-5,3.9-8,9.1-8.6,15.5c-1,9.8,4.2,18.9,13,22.9c8.1,3.7,18,1.7,24.2-4.8
		c0.6-0.6,1.1-1.2,1.6-1.8c0.3-0.4,0.5-1.1,0.3-1.5c-0.8-1.9-1.8-3.8-2.8-5.8c-0.2,0.3-0.4,0.5-0.5,0.8c-3.2,6.3-9.7,9.7-16.8,8.6
		c-6.4-1-11.8-6.5-12.9-13.2C34.2,41,44.1,31.3,55,33.7c4.8,1.1,8.4,3.9,10.7,8.3C68.7,48,71.7,54,74.8,60
		C75.8,62,75.8,63.9,74.4,65.8z"/>
	<path style="fill:#fc4bd1;" d="M51.5,39.3c-5.4,0.1-9.9,4.7-9.8,10.3c0,5.5,4.7,10.1,10,10c5.5-0.1,9.9-4.7,9.9-10.2C61.6,43.8,57.1,39.3,51.5,39.3z"/>
</g>
</svg>
