<?xml version="1.0" encoding="iso-8859-1"?>
<!-- Generator: Adobe Illustrator 18.1.1, SVG Export Plug-In . SVG Version: 6.00 Build 0)  -->
<svg version="1.1" id="Layer_1" xmlns="http://www.w3.org/2000/svg" xmlns:xlink="http://www.w3.org/1999/xlink" x="0px" y="0px"
	 viewBox="0 0 100 67.76" style="enable-background:new 0 0 100 67.76;" xml:space="preserve">
<path style="fill:#039fda;" d="M36.071,11.266c-19.454,0-35.224,12.396-35.224,27.688c0,4.615,1.445,8.963,3.985,12.789L2.564,64.895l14.079-2.847
	c5.57,2.901,12.246,4.594,19.428,4.594c19.454,0,35.224-12.396,35.224-27.688S55.525,11.266,36.071,11.266z"/>
<path style="fill:#039fda;" d="M98.847,25.473c0-13.725-13.966-24.89-31.131-24.89c-9.3,0-17.655,3.282-23.364,8.469c1.643,0.293,3.25,0.664,4.806,1.121
	c4.864-3.505,11.389-5.657,18.558-5.657c14.998,0,27.199,9.402,27.199,20.958c0,3.336-0.999,6.533-2.971,9.502l-0.433,0.652
	l1.523,8.829l-9.523-1.927l-0.616,0.322c-2.955,1.539-6.236,2.591-9.676,3.139c-0.421,1.433-0.968,2.826-1.63,4.174
	c4.428-0.44,8.682-1.623,12.495-3.507l13.802,2.793l-2.237-12.969C97.744,33.074,98.847,29.285,98.847,25.473z"/>
<g>
</g>
<g>
</g>
<g>
</g>
<g>
</g>
<g>
</g>
<g>
</g>
</svg>
