<?xml version="1.0" encoding="utf-8"?>
<!-- Generator: Adobe Illustrator 18.1.1, SVG Export Plug-In . SVG Version: 6.00 Build 0)  -->
<svg version="1.1" id="Layer_1" xmlns="http://www.w3.org/2000/svg" xmlns:xlink="http://www.w3.org/1999/xlink" x="0px" y="0px"
	 viewBox="0 0 100 100" enable-background="new 0 0 100 100" xml:space="preserve">
<g>
	<path style="fill:#fc4bd1;" d="M50.7,40.3c3.7,0,6.8-3.1,6.8-6.8c0-3.7-3.1-6.8-6.8-6.8c-3.8,0-6.9,3.1-6.9,6.8C43.8,37.2,47,40.3,50.7,40.3z"/>
	<path style="fill:#fc4bd1;" d="M95.6,30.8C93,24.8,89.5,19.5,85,15c-4.4-4.5-9.7-8-15.7-10.6c-6-2.6-12.4-3.9-19.3-3.9c-6.8,0-13.3,1.3-19.3,3.9
		C24.7,6.8,19.5,10.5,15,15S7,24.7,4.4,30.8c-2.6,6-3.9,12.4-3.9,19.3c0,6.8,1.3,13.3,3.9,19.3C7,75.3,10.5,80.5,15,85
		c4.4,4.5,9.7,8,15.7,10.6c6,2.6,12.4,3.9,19.3,3.9s13.3-1.3,19.3-3.9C75.3,93,80.5,89.5,85,85c4.5-4.4,8-9.7,10.6-15.7
		c2.6-6,3.9-12.4,3.9-19.3C99.5,43.2,98.2,36.8,95.6,30.8z M50.7,16.5c9.4,0,17,7.6,17,16.9c0,9.3-7.5,16.9-16.9,16.9
		c-9.5,0-17-7.4-17.1-16.9C33.7,24.1,41.3,16.5,50.7,16.5z M67,60.2c-2.5,1.3-5.1,2.3-7.7,3.4c-0.4,0.2-0.9,0.3-1.7,0.5
		c1.1,1.1,2.1,2,3,2.9c2.1,2,4.1,4,6.2,6.1c2.1,2.2,2.2,5.2,0.2,7.2c-2,2.1-5.2,2.1-7.3-0.1c-3-3-5.9-6-8.9-9.2
		c-0.5,0.5-0.8,0.8-1.1,1.1c-2.6,2.6-5.2,5.2-7.7,7.7c-1.2,1.3-2.7,2.1-4.5,1.9c-2.1-0.2-3.5-1.2-4.3-3.2c-0.8-1.9-0.4-3.8,1-5.2
		c2.1-2.2,4.4-4.4,6.6-6.6c0.9-0.9,1.8-1.7,2.8-2.8c-0.6-0.2-1.1-0.3-1.5-0.5c-2.6-1.1-5.3-2.1-7.8-3.5c-2.7-1.5-3.4-4.6-1.9-7
		c1.5-2.4,4.5-3.1,7.1-1.6c7.5,4.3,15,4.3,22.5,0c2.6-1.5,5.7-0.8,7.1,1.6C70.5,55.6,69.8,58.7,67,60.2z"/>
</g>
</svg>
