<?xml version="1.0" encoding="utf-8"?>
<!-- Generator: Adobe Illustrator 18.1.1, SVG Export Plug-In . SVG Version: 6.00 Build 0)  -->
<svg version="1.1" id="Layer_1" xmlns="http://www.w3.org/2000/svg" xmlns:xlink="http://www.w3.org/1999/xlink" x="0px" y="0px"
	 viewBox="0 0 100 100" enable-background="new 0 0 100 100" xml:space="preserve">
<path style="fill:#f08817;" fill="#020202" d="M32.3,31.6c-6.9,0-11.9,5.2-11.9,14.3v6.6c0,9.1,4.9,14,11.9,14c7,0,11.9-4.9,11.9-14v-6.6
	C44.2,36.8,39.3,31.6,32.3,31.6z"/>
<path style="fill:#f08817;" fill="#020202" d="M50.1,0.5C22.8,0.5,0.5,22.8,0.5,50.1c0,27.3,22.3,49.4,49.6,49.4s49.4-22.1,49.4-49.4
	C99.5,22.8,77.4,0.5,50.1,0.5z M47.9,52.4c0,11-6,17.5-15.6,17.5c-9.6,0-15.5-6.5-15.5-17.5v-6.5c0-11,6-17.8,15.6-17.8
	c9.6,0,15.6,6.8,15.6,17.8V52.4z M67.7,69.9c-10.3,0-13.9-6.4-14-11.3h3.8c0.3,3.9,3.5,7.9,10.6,7.9c6.1,0,10.1-3.1,10.1-7.9
	c0-4-2.5-6-7.7-7.4l-6.4-1.7c-5-1.3-9.2-4.3-9.2-10.3c0-7.1,6.1-11.2,13.3-11.2c7.1,0,13.1,3.8,13.2,10.8h-3.8
	c-0.3-3.8-3.2-7.4-9.5-7.4c-5.6,0-9.4,2.8-9.4,7.5c0,3.6,2.2,5.7,6.5,6.9l6.2,1.7C78,49.4,82,52,82,58.3
	C82,65.8,75.8,69.9,67.7,69.9z"/>
</svg>
