<?xml version="1.0" encoding="utf-8"?>
<!-- Generator: Adobe Illustrator 18.1.1, SVG Export Plug-In . SVG Version: 6.00 Build 0)  -->
<svg version="1.1" id="Layer_1" xmlns="http://www.w3.org/2000/svg" xmlns:xlink="http://www.w3.org/1999/xlink" x="0px" y="0px"
	 viewBox="0 0 100 100" enable-background="new 0 0 100 100" xml:space="preserve">
<g>
	<path style="fill:#fc4bd1;" fill="#020202" d="M99.5,49.9c0,27.5-22.1,49.6-49.5,49.6c-27.4,0-49.5-22.1-49.5-49.6C0.5,22.6,22.6,0.4,50,0.4
		C77.4,0.4,99.5,22.6,99.5,49.9z M70.7,39.9c-0.8-7.8-8-14.5-16.5-15.5c-13.1-1.6-25,6.6-25.1,19.3c0,6.1,2,9.9,7.2,12
		c3.7-3.7-0.7-5.9-1.1-10C34.1,35,46.8,24.5,58,31.3c7.9,4.7,6.5,24.7-3,26.7c-2,0.3-4.4-0.3-5.2-1.1c-4.7-4.4,3.7-11.8,1-18.1
		c-2.3-5.4-8.9-1.1-9.6,3.7c-0.4,2.5,0.8,4.9,0.8,7.2c0,5.2-3.2,12.4-4.1,17.6c-0.4,2.1-0.7,6.3-0.1,8.5h-0.1h3.5
		c2.4-4.1,3.9-10.3,5.2-15.7c0.8-0.6,1.1,1,1.7,1.4c4.4,3.4,12.4,1.4,15.9-1.7C69.2,55.6,71.4,46.8,70.7,39.9z"/>
</g>
</svg>
