<?xml version="1.0" encoding="iso-8859-1"?>
<!-- Generator: Adobe Illustrator 18.1.1, SVG Export Plug-In . SVG Version: 6.00 Build 0)  -->
<svg version="1.1" id="Layer_1" xmlns="http://www.w3.org/2000/svg" xmlns:xlink="http://www.w3.org/1999/xlink" x="0px" y="0px"
	 viewBox="0 0 100 130.667" style="enable-background:new 0 0 100 130.667;" xml:space="preserve">
<g>
	<g>
		<path style="fill:#039fda;" d="M49.587,24.366c6.045-0.01,10.88-4.895,10.865-10.978C60.437,7.593,55.396,2.52,49.627,2.495
			c-5.866-0.026-10.952,5.059-10.976,10.972C38.626,19.506,43.513,24.376,49.587,24.366z"/>
		<path style="fill:#039fda;" d="M72.822,38.114c-0.369-5.471-4.921-9.794-10.485-9.794h-24.79c-5.564,0-10.116,4.324-10.485,9.794h-0.03v33.183
			c0,2.133,1.729,3.862,3.862,3.862h0c2.133,0,3.862-1.729,3.862-3.862v-3.876c0.002,0.001,0.005,0.002,0.007,0.002V41.13h2.395
			v5.719V67.79v52.924c0,2.814,2.281,5.095,5.095,5.095c2.814,0,5.095-2.281,5.095-5.095V73.979h5.24v46.735
			c0,2.814,2.281,5.095,5.095,5.095h0c2.814,0,5.095-2.281,5.095-5.095V46.849H62.73v-5.858h2.396v30.307
			c0,2.133,1.729,3.862,3.862,3.862h0c2.133,0,3.862-1.729,3.862-3.862V38.114H72.822z"/>
	</g>
	<path style="fill:#039fda;" d="M76.342,27.893c5.48-0.009,9.864-4.438,9.85-9.952c-0.013-5.254-4.583-9.853-9.814-9.876
		c-5.318-0.023-9.929,4.586-9.951,9.948C66.404,23.487,70.835,27.902,76.342,27.893z"/>
	<path style="fill:#039fda;" d="M97.407,40.357c-0.335-4.96-4.461-8.88-9.506-8.88H70.888c1.394,1.617,2.342,3.633,2.638,5.859H73.6l0.028,0.778v33.183
		c0,2.558-2.082,4.64-4.64,4.64c-1.646,0-3.09-0.864-3.914-2.159v41.465c0,2.551,2.068,4.619,4.619,4.619
		c2.551,0,4.619-2.068,4.619-4.619v-42.37h4.75v42.37c0,2.551,2.068,4.619,4.619,4.619s4.619-2.068,4.619-4.619V48.276h-0.042
		v-5.311h2.172v27.476c0,1.934,1.568,3.501,3.501,3.501h0c1.934,0,3.501-1.568,3.501-3.501V40.357H97.407z"/>
	<path style="fill:#039fda;" d="M23.462,27.893c5.507,0.009,9.938-4.406,9.915-9.881c-0.022-5.361-4.633-9.971-9.951-9.948
		c-5.231,0.023-9.801,4.622-9.814,9.876C13.598,23.455,17.982,27.884,23.462,27.893z"/>
	<path style="fill:#039fda;" d="M30.894,75.937c-2.558,0-4.64-2.082-4.64-4.64V37.336h0.104c0.296-2.226,1.243-4.242,2.638-5.859H11.903
		c-5.045,0-9.171,3.92-9.506,8.88H2.372v30.084c0,1.934,1.568,3.501,3.501,3.501h0c1.934,0,3.501-1.568,3.501-3.501V42.965h2.172
		v5.311h-0.042v66.967c0,2.551,2.068,4.619,4.619,4.619h0c2.551,0,4.619-2.068,4.619-4.619v-42.37h4.75v42.37
		c0,2.551,2.068,4.619,4.619,4.619c2.551,0,4.619-2.068,4.619-4.619V73.903C33.894,75.13,32.487,75.937,30.894,75.937z"/>
</g>
<g>
</g>
<g>
</g>
<g>
</g>
<g>
</g>
<g>
</g>
<g>
</g>
</svg>
