<?xml version="1.0" encoding="utf-8"?>
<!-- Generator: Adobe Illustrator 18.1.1, SVG Export Plug-In . SVG Version: 6.00 Build 0)  -->
<svg version="1.1" id="Layer_1" xmlns="http://www.w3.org/2000/svg" xmlns:xlink="http://www.w3.org/1999/xlink" x="0px" y="0px"
	 viewBox="0 0 100 100" enable-background="new 0 0 100 100" xml:space="preserve">
<path style="fill:#fc4bd1;" d="M95.6,30.8C93,24.8,89.5,19.5,85,15c-4.4-4.5-9.7-8-15.7-10.6c-6-2.6-12.4-3.9-19.3-3.9c-6.8,0-13.3,1.3-19.3,3.9
	C24.7,6.8,19.5,10.5,15,15S7,24.7,4.4,30.8c-2.6,6-3.9,12.4-3.9,19.3c0,6.8,1.3,13.3,3.9,19.3C7,75.3,10.5,80.5,15,85
	c4.4,4.5,9.7,8,15.7,10.6c6,2.6,12.4,3.9,19.3,3.9s13.3-1.3,19.3-3.9C75.3,93,80.5,89.5,85,85c4.5-4.4,8-9.7,10.6-15.7
	c2.6-6,3.9-12.4,3.9-19.3C99.5,43.2,98.2,36.8,95.6,30.8z M70.7,61.7c-0.9,0.5-2.4-0.6-3.8-2.7c-0.5,2.2-1.9,4.3-3.8,5.9
	c2,0.8,3.4,2,3.4,3.4c0,2.3-3.6,4.1-8,4.1c-4,0-7.3-1.5-7.9-3.5c-0.2,0-0.8,0-1,0c-0.6,2-3.9,3.5-7.9,3.5c-4.4,0-8-1.8-8-4.1
	c0-1.4,1.3-2.6,3.4-3.4c-1.9-1.6-3.3-3.7-3.8-5.9c-1.4,2.1-2.9,3.2-3.8,2.7c-1.4-0.7-1.1-4.5,0.6-8.5c1.3-3.1,3.2-5.5,4.5-6
	c0-0.2,0-0.4,0-0.6c0-1.2,0.3-2.3,0.9-3.3c0-0.1,0-0.1,0-0.2c0-0.6,0.1-1.1,0.4-1.5C36,33.3,41.4,26.8,50,26.8
	c8.6,0,14,6.5,14.3,14.7c0.2,0.5,0.4,1,0.4,1.5c0,0.1,0,0.1,0,0.2c0.6,0.9,0.9,2,0.9,3.3c0,0.2,0,0.4,0,0.6c1.4,0.5,3.2,2.8,4.5,6
	C71.8,57.1,72.1,61,70.7,61.7z"/>
</svg>
