<?xml version="1.0" encoding="utf-8"?>
<!-- Generator: Adobe Illustrator 18.1.1, SVG Export Plug-In . SVG Version: 6.00 Build 0)  -->
<svg version="1.1" id="Layer_1" xmlns="http://www.w3.org/2000/svg" xmlns:xlink="http://www.w3.org/1999/xlink" x="0px" y="0px"
	 viewBox="0 0 100 100" enable-background="new 0 0 100 100" xml:space="preserve">
<path style="fill:#fc4bd1;" d="M33.5,46C33.5,46,33.4,46,33.5,46C33.4,46,33.4,46,33.5,46z"/>
<path style="fill:#fc4bd1;" d="M95.6,30.8C93,24.8,89.5,19.5,85,15c-4.4-4.5-9.7-8-15.7-10.6c-6-2.6-12.4-3.9-19.3-3.9c-6.8,0-13.3,1.3-19.3,3.9
	C24.7,6.8,19.5,10.5,15,15S7,24.7,4.4,30.8c-2.6,6-3.9,12.4-3.9,19.3c0,6.8,1.3,13.3,3.9,19.3C7,75.3,10.5,80.5,15,85
	c4.4,4.5,9.7,8,15.7,10.6c6,2.6,12.4,3.9,19.3,3.9s13.3-1.3,19.3-3.9C75.3,93,80.5,89.5,85,85c4.5-4.4,8-9.7,10.6-15.7
	c2.6-6,3.9-12.4,3.9-19.3C99.5,43.2,98.2,36.8,95.6,30.8z M79.4,42.7L65.5,55.5l0.3,2.7c-5.2,0.6-19.9-0.8-19.9-0.8L65,44
	c-11.3-3.2-30.8,0-31.5,0.1c0.9,0,15.8,0.5,22.3,1.7l-19,13.9c0.6,0,17.9,1.9,29.2-0.3v0c1.7-0.3,2.3-0.5,4-1.2
	c-1,1.2-3,2.1-3.7,2.4L68.8,75c0.1,0.5-0.1,1-0.5,1.2c-0.4,0.3-0.9,0.3-1.3,0.2l-16.8-9.9l-17,9.8c-0.2,0.1-0.4,0.2-0.6,0.2
	c-0.3,0-0.5-0.1-0.7-0.2c-0.4-0.3-0.6-0.8-0.5-1.3l3.4-19.4l-14-12.8c-0.4-0.3-0.5-0.8-0.4-1.3c0.1-0.5,0.6-0.8,1.1-0.8l18.9-2.2
	l8.5-17.8c0.2-0.5,0.6-0.8,1.1-0.8s0.9,0.3,1.1,0.8l8.3,18.2l19.1,1.8c0.5,0,0.9,0.4,1.1,0.8C79.8,41.9,79.6,42.4,79.4,42.7z"/>
</svg>
