<?xml version="1.0" encoding="utf-8"?>
<!-- Generator: Adobe Illustrator 18.1.1, SVG Export Plug-In . SVG Version: 6.00 Build 0)  -->
<svg version="1.1" id="Layer_1" xmlns="http://www.w3.org/2000/svg" xmlns:xlink="http://www.w3.org/1999/xlink" x="0px" y="0px"
	 viewBox="0 0 100 100" enable-background="new 0 0 100 100" xml:space="preserve">
<path style="fill:#fc4bd1;" d="M95.6,30.8C93,24.8,89.5,19.5,85,15c-4.4-4.5-9.7-8-15.7-10.6c-6-2.6-12.4-3.9-19.3-3.9c-6.8,0-13.3,1.3-19.3,3.9
	C24.7,6.8,19.5,10.5,15,15S7,24.7,4.4,30.8c-2.6,6-3.9,12.4-3.9,19.3c0,6.8,1.3,13.3,3.9,19.3C7,75.3,10.5,80.5,15,85
	c4.4,4.5,9.7,8,15.7,10.6c6,2.6,12.4,3.9,19.3,3.9s13.3-1.3,19.3-3.9C75.3,93,80.5,89.5,85,85c4.5-4.4,8-9.7,10.6-15.7
	c2.6-6,3.9-12.4,3.9-19.3C99.5,43.2,98.2,36.8,95.6,30.8z M38,63.9c-7.1-2.3-11.4-7.4-12.9-14.7c-0.2-1.1-0.2-2.3-0.3-2.9
	c0.1-5.6,1.8-10,5.3-13.7c3.5-3.7,7.2-7.2,10.8-10.8c1.8-1.8,4.6-1.8,6.4,0c1.8,1.8,1.7,4.6-0.1,6.4c-3.5,3.5-7,7-10.5,10.5
	c-5.1,5.3-3.3,14,3.6,16.6c4,1.5,7.6,0.7,10.7-2.2c1.4-1.3,2.8-2.8,4.2-4.2c1.9-1.9,4.7-1.9,6.5-0.1c1.8,1.8,1.7,4.6-0.1,6.4
	c-1.4,1.5-2.8,2.9-4.3,4.3C51.7,64.6,45.2,66.2,38,63.9z M49.6,48.6c0-1,0.8-1.9,1.8-1.8c1,0,1.8,0.8,1.8,1.8c0,1-0.8,1.8-1.8,1.8
	C50.4,50.4,49.7,49.6,49.6,48.6z M72.5,64.7c-3.5,3.7-7.2,7.3-10.8,10.9c-1.2,1.2-2.8,1.7-4.4,1.2c-1.6-0.5-2.7-1.6-3.1-3.3
	c-0.4-1.7,0.1-3.1,1.3-4.3c3.5-3.5,7-6.9,10.4-10.5c4.3-4.4,3.8-11.3-0.9-15.1c-4-3.1-9.6-2.8-13.3,0.7c-1.4,1.4-2.8,2.8-4.2,4.2
	c-1.9,1.9-4.7,2-6.5,0.2c-1.8-1.8-1.8-4.6,0.1-6.5c1.4-1.4,2.8-2.9,4.3-4.2c3.7-3.6,8.2-5.4,12.8-5.5c10,0,18.2,7.1,19.4,16.5
	C78.4,55,76.7,60.3,72.5,64.7z"/>
</svg>
