<?xml version="1.0" encoding="utf-8"?>
<!-- Generator: Adobe Illustrator 18.1.1, SVG Export Plug-In . SVG Version: 6.00 Build 0)  -->
<svg version="1.1" id="Layer_1" xmlns="http://www.w3.org/2000/svg" xmlns:xlink="http://www.w3.org/1999/xlink" x="0px" y="0px"
	 viewBox="0 0 100 100" enable-background="new 0 0 100 100" xml:space="preserve">
<path style="fill:#fc4bd1;" d="M50.9,46.2c-4.2-1-5.2-1.4-6-2.4c-0.8-0.9-0.9-1.5-0.2-2.5c0.7-1.1,2.3-1.8,4.5-1.9c3.2-0.2,4.6,0.5,6.5,3.5
	c1.4,2.2,2.8,2.7,4.7,1.9c2.4-1.2,2.2-5.1-0.4-7.5c-2.5-2.1-5.3-3-9.9-3c-4.8,0-8.1,1-10.3,3.2c-1.8,1.8-2.1,2.7-2.1,5.5
	c0,2.8,0.3,3.7,2.2,5.4c2,1.9,3.6,2.5,9.5,3.9c4.2,1,5.3,1.5,6.2,2.6c0.4,0.5,0.7,1,0.7,2c0,1.1-0.1,1.3-1,2.2
	c-1.3,1.3-3.3,1.9-5.8,1.8c-3-0.2-4.3-1.1-5.8-4.2c-1.1-2.1-2-2.8-3.4-2.8c-3.2,0-4.3,2.6-2.6,6c1.4,3,4.3,4.9,7.9,5.7
	c2.2,0.4,7,0.4,9.1,0h-0.1v0c3.6-0.8,6.8-3,8-5.6c1.5-3.2,1.1-6.9-1-9.2C59.8,48.8,57.2,47.7,50.9,46.2z"/>
<path style="fill:#fc4bd1;" d="M95.6,30.8C93,24.8,89.5,19.5,85,15c-4.4-4.5-9.7-8-15.7-10.6c-6-2.6-12.4-3.9-19.3-3.9c-6.8,0-13.3,1.3-19.3,3.9
	C24.7,6.8,19.5,10.5,15,15S7,24.7,4.4,30.8c-2.6,6-3.9,12.4-3.9,19.3c0,6.8,1.3,13.3,3.9,19.3C7,75.3,10.5,80.5,15,85
	c4.4,4.5,9.7,8,15.7,10.6c6,2.6,12.4,3.9,19.3,3.9s13.3-1.3,19.3-3.9C75.3,93,80.5,89.5,85,85c4.5-4.4,8-9.7,10.6-15.7
	c2.6-6,3.9-12.4,3.9-19.3C99.5,43.2,98.2,36.8,95.6,30.8z M69.1,71.4c-1.3,1.1-3.9,2.3-5.6,2.7c-1.6,0.3-4.3,0.3-5.9-0.1h-0.1v0
	c-0.7-0.2-1.6-0.4-2.2-0.7c-0.7-0.3-1.4-0.3-3.8-0.2c-2.3,0.1-3.5,0-5.1-0.2C37.6,71.4,30.6,65,28,56.2c-0.4-1.6-0.5-2.5-0.5-6.5
	c0-4.3-0.1-4.6-0.7-6.4c-3.2-8.7,3.3-17.8,12.5-17.8c1.9,0,4.2,0.5,5.5,1.2c0.9,0.4,1.4,0.5,4.8,0.5c3.1,0,4.3,0.1,5.8,0.5
	c6.9,1.8,12.5,6.2,15.5,12.5c1.9,3.8,2.5,7.8,2.1,12.3c-0.2,2.4-0.2,2.6,0.3,4.1C75,61.9,73.4,67.9,69.1,71.4z"/>
</svg>
