<?xml version="1.0" encoding="iso-8859-1"?>
<!-- Generator: Adobe Illustrator 18.1.1, SVG Export Plug-In . SVG Version: 6.00 Build 0)  -->
<svg version="1.1" id="Layer_1" xmlns="http://www.w3.org/2000/svg" xmlns:xlink="http://www.w3.org/1999/xlink" x="0px" y="0px"
	 viewBox="0 0 100 80" style="enable-background:new 0 0 100 80;" xml:space="preserve">
<g>
	<path style="fill:#039fda;" d="M40.105,11.041c0-1.197,0.974-2.171,2.171-2.171h14.615c1.197,0,2.171,0.974,2.171,2.171v2.039h7.119v-2.039
		c0-5.123-4.167-9.29-9.29-9.29H42.276c-5.122,0-9.29,4.167-9.29,9.29v2.039h7.119V11.041z"/>
	<rect style="fill:#039fda;" x="26.404" y="15.056" width="46.358" height="62.952"/>
	<path style="fill:#039fda;" d="M10.322,15.056c-5.01,0-9.072,4.062-9.072,9.072v44.807c0,5.011,4.062,9.072,9.072,9.072h9.761V15.056H10.322z"/>
	<path style="fill:#039fda;" d="M88.844,15.056h-9.761v62.952h9.761c5.011,0,9.072-4.062,9.072-9.072V24.129C97.917,19.118,93.855,15.056,88.844,15.056z"
		/>
</g>
<g>
</g>
<g>
</g>
<g>
</g>
<g>
</g>
<g>
</g>
<g>
</g>
</svg>
