<?xml version="1.0" encoding="utf-8"?>
<!-- Generator: Adobe Illustrator 18.1.1, SVG Export Plug-In . SVG Version: 6.00 Build 0)  -->
<svg version="1.1" id="Layer_1" xmlns="http://www.w3.org/2000/svg" xmlns:xlink="http://www.w3.org/1999/xlink" x="0px" y="0px"
	 viewBox="0 0 100 100" enable-background="new 0 0 100 100" xml:space="preserve">
<path style="fill:#fc4bd1;" d="M95.6,30.8C93,24.8,89.5,19.5,85,15c-4.4-4.5-9.7-8-15.7-10.6c-6-2.6-12.4-3.9-19.3-3.9c-6.8,0-13.3,1.3-19.3,3.9
	C24.7,6.8,19.5,10.5,15,15S7,24.7,4.4,30.8c-2.6,6-3.9,12.4-3.9,19.3c0,6.8,1.3,13.3,3.9,19.3C7,75.3,10.5,80.5,15,85
	c4.4,4.5,9.7,8,15.7,10.6c6,2.6,12.4,3.9,19.3,3.9s13.3-1.3,19.3-3.9C75.3,93,80.5,89.5,85,85c4.5-4.4,8-9.7,10.6-15.7
	c2.6-6,3.9-12.4,3.9-19.3C99.5,43.2,98.2,36.8,95.6,30.8z M77,68c-3.4,0.6-6.9,0.5-10.4,0.2c-2.2-0.2-3.7-1.8-5.2-3.4
	c-1.2-1.2-2.2-2.6-3.5-3.7c-1.9-1.7-3.3-1.3-4.2,1.1c-0.4,1-0.4,2.1-0.5,3.1c-0.1,1.9-1,2.7-2.9,2.8c-8.5,0.6-15.3-2.6-20.6-9.2
	c-5.2-6.6-9.1-13.9-12.6-21.5c-1-2.2-0.5-2.9,2-3c2.3-0.1,4.7,0.1,7-0.1c2.1-0.1,3.3,0.7,4.1,2.6c1.5,3.7,3.4,7.2,5.7,10.4
	c0.6,0.8,1.3,1.7,2.1,2.3c1,0.8,2.1,0.6,2.4-0.7c0.9-3.8,1-7.7,0-11.5c-0.4-1.4-1.8-1.8-3.2-2.2c0.8-1.6,2.1-2.1,3.5-2.2
	c2.9-0.3,5.8-0.3,8.7,0c2.7,0.3,3.6,1.1,3.6,3.9c0,3.3-0.1,6.6-0.1,10c0,1.2-0.1,2.7,1.4,3.1c1.4,0.4,2.1-0.9,2.9-1.8
	c2.8-3.4,4.9-7.3,6.5-11.3c0.7-1.7,1.6-2.4,3.4-2.3c3.2,0.1,6.3,0,9.5,0c2.2,0,2.8,0.9,2,2.9c-1.4,3.8-4.1,6.8-6.5,9.9
	c-4.4,5.8-4.4,5.8,0.8,10.7c2.1,1.9,4,4,5.5,6.5C79.7,66.4,79.2,67.6,77,68z"/>
</svg>
