<?xml version="1.0" encoding="iso-8859-1"?>
<!-- Generator: Adobe Illustrator 18.1.1, SVG Export Plug-In . SVG Version: 6.00 Build 0)  -->
<svg version="1.1" id="Layer_1" xmlns="http://www.w3.org/2000/svg" xmlns:xlink="http://www.w3.org/1999/xlink" x="0px" y="0px"
	 viewBox="0 0 100 156.667" style="enable-background:new 0 0 100 156.667;" xml:space="preserve">
<path style="fill:#56ca31;" d="M90.297,50.75c-0.494,0-0.961,0.101-1.403,0.254v-6.702c0-6.26-4.752-11.409-10.845-12.04l-5.643-19.89
	C71.05,7.596,66.689,4.3,61.724,4.3H32.042c-4.965,0-9.327,3.296-10.682,8.073l-5.643,19.89c-6.093,0.631-10.845,5.78-10.845,12.04
	v66.909c0,6.27,4.767,11.426,10.874,12.043l5.614,19.786c1.355,4.777,5.717,8.073,10.682,8.073h29.682
	c4.965,0,9.327-3.296,10.682-8.073l5.614-19.786c6.107-0.617,10.874-5.773,10.874-12.043V70.996
	c0.442,0.153,0.909,0.254,1.403,0.254c2.377,0,4.303-1.927,4.303-4.303V55.053C94.6,52.677,92.673,50.75,90.297,50.75z
	 M82.894,111.212c0,3.366-2.739,6.105-6.106,6.105h-59.81c-3.367,0-6.105-2.739-6.105-6.105V44.303c0-3.367,2.739-6.106,6.105-6.106
	h59.81c3.367,0,6.106,2.739,6.106,6.106V111.212z"/>
<g>
</g>
<g>
</g>
<g>
</g>
<g>
</g>
<g>
</g>
<g>
</g>
</svg>
