<?xml version="1.0" encoding="utf-8"?>
<!-- Generator: Adobe Illustrator 18.1.1, SVG Export Plug-In . SVG Version: 6.00 Build 0)  -->
<svg version="1.1" id="Layer_1" xmlns="http://www.w3.org/2000/svg" xmlns:xlink="http://www.w3.org/1999/xlink" x="0px" y="0px"
	 viewBox="0 0 100 100" enable-background="new 0 0 100 100" xml:space="preserve">
<path style="fill:#fc4bd1;" d="M34,33.8c-1.7,0-3.1,1.4-3.1,3.1c0,1.7,1.4,3.1,3.1,3.1c1.7,0,3.1-1.4,3.1-3.1C37.1,35.2,35.7,33.8,34,33.8z"/>
<path style="fill:#fc4bd1;" d="M55.5,49.1c-1.4,0-2.6,1.1-2.6,2.6c0,1.4,1.1,2.6,2.6,2.6c1.4,0,2.6-1.1,2.6-2.5C58.1,50.3,57,49.1,55.5,49.1z"/>
<path style="fill:#fc4bd1;" d="M48.7,39.9c1.6,0,3-1.4,3-3c0-1.7-1.4-3.1-3-3.1c-1.7,0-3,1.4-3,3C45.6,38.5,47,39.9,48.7,39.9z"/>
<path style="fill:#fc4bd1;" d="M68.1,49.1c-1.5,0-2.7,1.2-2.7,2.7c0,1.5,1.2,2.6,2.6,2.6c1.5,0,2.7-1.2,2.7-2.6C70.7,50.3,69.5,49.1,68.1,49.1z"/>
<path style="fill:#fc4bd1;" d="M95.6,30.8C93,24.8,89.5,19.5,85,15c-4.4-4.5-9.7-8-15.7-10.6c-6-2.6-12.4-3.9-19.3-3.9c-6.8,0-13.3,1.3-19.3,3.9
	C24.7,6.8,19.5,10.5,15,15S7,24.7,4.4,30.8c-2.6,6-3.9,12.4-3.9,19.3c0,6.8,1.3,13.3,3.9,19.3C7,75.3,10.5,80.5,15,85
	c4.4,4.5,9.7,8,15.7,10.6c6,2.6,12.4,3.9,19.3,3.9s13.3-1.3,19.3-3.9C75.3,93,80.5,89.5,85,85c4.5-4.4,8-9.7,10.6-15.7
	c2.6-6,3.9-12.4,3.9-19.3C99.5,43.2,98.2,36.8,95.6,30.8z M38.7,61.8c-1.6-0.2-3.2-0.6-4.8-0.9c-0.2,0-0.5,0-0.7,0.1
	c-2.2,1-4.3,2-6.5,3c-0.2,0.1-0.4,0.2-0.7,0.3c0.1-0.5,0.2-1,0.4-1.4c0.4-1.5,0.8-2.9,1.2-4.4c0.1-0.4,0-0.6-0.3-0.8
	c-3.3-2.3-5.8-5.3-7.1-9.2c-2.1-6.4-0.5-12.1,4-17c3.6-3.9,8.2-5.9,13.3-6.7c6.2-0.9,12,0.2,17.3,3.7c3.8,2.5,6.6,5.9,7.8,10.4
	c0.1,0.2,0.1,0.5,0.2,0.8c-2.2-0.1-4.3,0.1-6.3,0.6c-5.3,1.3-9.6,4-12.6,8.7c-2.4,3.9-3,8.1-1.7,12.5c0,0.1,0.1,0.2,0.1,0.5
	C41.1,62,39.9,62,38.7,61.8z M80.5,58.2c-0.2,0.9-0.3,1.8-0.5,2.6c-1,3.6-3.2,6.4-6.1,8.5c-0.4,0.3-0.5,0.6-0.3,1
	c0.4,1.5,0.8,3,1.3,4.7c-0.3-0.1-0.4-0.2-0.6-0.2c-1.8-0.8-3.6-1.6-5.3-2.5c-0.4-0.2-0.8-0.2-1.2-0.1C61.1,74,55,73.1,49.5,69.1
	c-3.4-2.5-5.6-5.7-6.2-9.9c-0.6-4.4,0.7-8.2,3.5-11.5c3-3.4,6.9-5.4,11.3-6.1c5.3-0.9,10.3,0,14.9,2.9c3.9,2.5,6.5,6,7.3,10.7
	c0.1,0.3,0.1,0.7,0.2,1V58.2z"/>
</svg>
