<?xml version="1.0" encoding="utf-8"?>
<!-- Generator: Adobe Illustrator 18.1.1, SVG Export Plug-In . SVG Version: 6.00 Build 0)  -->
<svg version="1.1" id="Layer_1" xmlns="http://www.w3.org/2000/svg" xmlns:xlink="http://www.w3.org/1999/xlink" x="0px" y="0px"
	 viewBox="0 0 100 100" enable-background="new 0 0 100 100" xml:space="preserve">
<g>
	<path style="fill:#fc4bd1;" d="M95.6,30.8C93,24.8,89.5,19.5,85,15c-4.4-4.5-9.7-8-15.7-10.6c-6-2.6-12.4-3.9-19.3-3.9c-6.8,0-13.3,1.3-19.3,3.9
		C24.7,6.8,19.5,10.5,15,15S7,24.7,4.4,30.8c-2.6,6-3.9,12.4-3.9,19.3c0,6.8,1.3,13.3,3.9,19.3C7,75.3,10.5,80.5,15,85
		c4.4,4.5,9.7,8,15.7,10.6c6,2.6,12.4,3.9,19.3,3.9s13.3-1.3,19.3-3.9C75.3,93,80.5,89.5,85,85c4.5-4.4,8-9.7,10.6-15.7
		c2.6-6,3.9-12.4,3.9-19.3C99.5,43.2,98.2,36.8,95.6,30.8z M45.7,73.2c-11.3,0-22.8-6.1-22.8-15.3c0-4.8,3-10.3,8.1-15.5
		c6.8-7,14.8-10.1,17.8-7.1c1.3,1.3,1.5,3.7,0.6,6.5c-0.4,1.4,1.3,0.6,1.3,0.6c5.5-2.4,10.4-2.5,12.1,0.1c0.9,1.4,0.8,3.3,0,5.5
		c-0.4,1,0.1,1.2,0.9,1.4c3.1,1,6.6,3.4,6.6,7.6C70.4,63.9,60.5,73.2,45.7,73.2z M69.2,44c-1.1,0.2-2.1-0.5-2.3-1.5
		c-0.6-2.8-2.8-5.1-5.6-5.6c-1.1-0.2-1.7-1.2-1.5-2.3c0.2-1.1,1.2-1.7,2.3-1.5c4.4,0.9,7.8,4.3,8.7,8.7C70.9,42.7,70.2,43.7,69.2,44
		z M78.5,41.9c0,1.1-0.9,2-2,2c-1.1,0-2-0.9-2-2c0-7.1-5.7-12.8-12.8-12.8c-1.1,0-2-0.9-2-2c0-1.1,0.9-2,2-2
		C71,25.2,78.5,32.7,78.5,41.9L78.5,41.9z"/>
	<path style="fill:#fc4bd1;" d="M43.7,47.6c-9,0.9-15.8,6.4-15.2,12.4c0.6,5.9,8.3,10,17.3,9.1c9-0.9,15.8-6.4,15.2-12.4C60.4,50.8,52.7,46.7,43.7,47.6z
		 M43.4,64.3c-3.6,0.7-7.1-1.1-7.7-4.1c-0.6-3,1.8-6.1,5.5-6.8c3.6-0.7,7.1,1.1,7.7,4.1C49.4,60.6,47,63.6,43.4,64.3z"/>
</g>
</svg>
