<?xml version="1.0" encoding="utf-8"?>
<!-- Generator: Adobe Illustrator 18.1.1, SVG Export Plug-In . SVG Version: 6.00 Build 0)  -->
<svg version="1.1" id="Layer_1" xmlns="http://www.w3.org/2000/svg" xmlns:xlink="http://www.w3.org/1999/xlink" x="0px" y="0px"
	 viewBox="0 0 100 100" enable-background="new 0 0 100 100" xml:space="preserve">
<g>
	<path style="fill:#fc4bd1;" d="M50.4,27.3c-11.8,0-21.3,9.6-21.3,21.3c0,4.2,1.2,8.3,3.5,11.8l0.6,0.8l-2.6,7.7l7.9-2.5l0.8,0.5c3.3,2,7.2,3.1,11.1,3.1
		c11.7,0,21.3-9.6,21.3-21.3C71.8,36.8,62.2,27.3,50.4,27.3z M61.3,58.9c-1.8,1.2-3.5,1.7-5.4,1.3c-1.9-0.4-6.5-1.5-11.1-5.9
		c0,0-4.2-3.9-5.9-8c-1.7-4.1-0.2-7,1.3-8.4c0,0,1-0.9,1.7-0.9c0.7,0,1.5,0,1.8,0.1c0.3,0.2,0.4,0.4,0.5,0.6c0,0,2,4.5,2.1,4.9
		c0.2,0.4,0.2,0.9-0.1,1.5c-0.3,0.6-1.4,1.7-1.6,2c-0.2,0.3-0.4,0.5,0,1.2c0.5,0.7,2.6,4.8,8.4,7.2c0,0,0.6,0.3,1.1-0.2
		c0.5-0.5,1.7-2.1,1.9-2.3c0.2-0.2,0.6-0.7,1.4-0.4c0.8,0.3,5,2.3,5,2.3s0.6,0.2,0.5,1.1C63.2,55.9,63.2,57.7,61.3,58.9z"/>
	<path style="fill:#fc4bd1;" d="M95.6,30.8C93,24.8,89.5,19.5,85,15c-4.4-4.5-9.7-8-15.7-10.6c-6-2.6-12.4-3.9-19.3-3.9c-6.8,0-13.3,1.3-19.3,3.9
		C24.7,6.8,19.5,10.5,15,15S7,24.7,4.4,30.8c-2.6,6-3.9,12.4-3.9,19.3c0,6.8,1.3,13.3,3.9,19.3C7,75.3,10.5,80.5,15,85
		c4.4,4.5,9.7,8,15.7,10.6c6,2.6,12.4,3.9,19.3,3.9s13.3-1.3,19.3-3.9C75.3,93,80.5,89.5,85,85c4.5-4.4,8-9.7,10.6-15.7
		c2.6-6,3.9-12.4,3.9-19.3C99.5,43.2,98.2,36.8,95.6,30.8z M50.4,74c-4.4,0-8.6-1.1-12.4-3.2l-13.9,4.5l4.6-13.5
		c-2.4-4-3.7-8.5-3.7-13.2c0-14,11.4-25.4,25.4-25.4c14,0,25.4,11.4,25.4,25.4C75.9,62.6,64.5,74,50.4,74z"/>
</g>
</svg>
