<?xml version="1.0" encoding="utf-8"?>
<!-- Generator: Adobe Illustrator 18.1.1, SVG Export Plug-In . SVG Version: 6.00 Build 0)  -->
<svg version="1.1" id="Layer_1" xmlns="http://www.w3.org/2000/svg" xmlns:xlink="http://www.w3.org/1999/xlink" x="0px" y="0px"
	 viewBox="0 0 100 100" enable-background="new 0 0 100 100" xml:space="preserve">
<g>
	<path style="fill:#f08817;" fill="#020202" d="M0.5,49.9c0-27.3,22.1-49.4,49.4-49.4c27.3,0,49.6,22.1,49.6,49.4c0,27.3-22.3,49.6-49.6,49.6
		C22.6,99.5,0.5,77.2,0.5,49.9z M25.1,65.3c3-1.1,5.6-1.7,8-1.7c3.9,0,6.8,1.5,9.2,3c1.1-3.7,3.8-12.8,4.5-15.5
		c-0.6-0.4-1.1-0.7-1.7-1.1c-2.4-1.1-4.5-1.7-6.8-1.7c-0.3,0-0.6,0-0.8,0c-2.7,0.1-5.1,0.8-6.8,1.4c-0.4,0.3-0.8,0.4-1.3,0.6
		L25.1,65.3z M31.1,44.9c3.1-1.3,5.8-1.8,8.3-1.8c3.7,0,6.5,1.4,8.7,3l4.5-15.3c-1-0.6-3.4-2-5.2-2.4c-1.1-0.3-2.4-0.4-3.8-0.4
		c-2.4,0-5.2,0.7-8.3,2L31.1,44.9z M68.8,55.4c-2.8,0.8-5.6,1.3-8.2,1.3c-4.6,0-7.9-1.4-9.9-3l-4.4,15.2c1.3,0.8,5.6,3.1,9,3.1
		c2.7,0,5.6-0.6,9.2-2.1L68.8,55.4z M56.7,33.5l-4.5,15.4c3,2,6.2,3,9.6,3c2.8,0,5.6-0.7,8.4-2v-0.1h0.3l4.2-14.9
		c-2.8,1.1-5.6,1.7-8.3,1.7C62,36.4,58.8,34.9,56.7,33.5z"/>
</g>
</svg>
