<?xml version="1.0" encoding="utf-8"?>
<!-- Generator: Adobe Illustrator 18.1.1, SVG Export Plug-In . SVG Version: 6.00 Build 0)  -->
<svg version="1.1" id="Layer_1" xmlns="http://www.w3.org/2000/svg" xmlns:xlink="http://www.w3.org/1999/xlink" x="0px" y="0px"
	 viewBox="0 0 100 100" enable-background="new 0 0 100 100" xml:space="preserve">
<g>
	<path style="fill:#fc4bd1;" fill="#020202" d="M50.1,99.5c-6.9,0-13.3-1.3-19.3-3.9c-6-2.6-11.3-6.1-15.8-10.6C10.5,80.6,7,75.4,4.4,69.4
		c-2.6-6-3.9-12.4-3.9-19.3c0-6.9,1.3-13.3,3.9-19.3C7,24.8,10.5,19.5,15,15s9.8-8,15.8-10.6c6-2.6,12.4-3.9,19.3-3.9
		c6.9,0,13.3,1.3,19.3,3.9c6,2.6,11.2,6.1,15.7,10.6c4.5,4.5,8,9.8,10.6,15.8c2.6,6,3.9,12.4,3.9,19.3c0,6.9-1.3,13.3-3.9,19.3
		c-2.6,6-6.1,11.2-10.6,15.7c-4.5,4.5-9.7,8-15.7,10.6C63.4,98.2,56.9,99.5,50.1,99.5z M29.5,55.7H33v17.2h3.2V55.7h3.5v-2.8H29.5
		V55.7z M32.7,26.7l4.4,13.4v8.7h3.8v-9.2l4.4-13h-3.8l-2.4,8.9h-0.1l-2.5-8.9H32.7z M49.5,58.1h-3v11.3c-0.4,0.4-0.7,0.6-0.8,0.7
		c-0.3,0.2-0.6,0.3-0.8,0.3c-0.4,0-0.6,0-0.7-0.1c0-0.1,0-0.2-0.1-0.4c0-0.1-0.1-0.3-0.1-0.5V58.1h-3v12.4c0,0.8,0.2,1.5,0.6,2
		c0.3,0.4,0.8,0.6,1.5,0.6c0.6,0,1.1-0.1,1.7-0.4c0.7-0.3,1.2-0.8,1.7-1.4v1.7h3V58.1z M45.6,44.7c0,1.3,0.4,2.4,1.3,3.2
		c0.8,0.8,2,1.3,3.5,1.3c1.5,0,2.7-0.4,3.5-1.3c0.8-0.7,1.3-1.7,1.3-3.2v-8.4c0-1.2-0.4-2.2-1.3-3c-0.8-0.8-2-1.3-3.4-1.3
		c-1.4,0-2.6,0.4-3.7,1.1c-0.8,0.8-1.3,1.9-1.3,3.1V44.7z M50.4,46.4c-0.5,0-0.8-0.1-1.1-0.4c-0.2-0.4-0.3-0.7-0.3-1v-8.9
		c0-0.4,0.1-0.7,0.4-0.8c0.1-0.3,0.4-0.4,1-0.4c0.4,0,0.7,0.1,1,0.4c0.3,0.2,0.4,0.5,0.4,0.8V45c0,0.4-0.1,0.7-0.4,1
		C51.1,46.3,50.7,46.4,50.4,46.4z M57.4,58c-0.7,0-1.1,0.1-1.4,0.3c-0.6,0.4-1,0.7-1.3,1v-6.3h-3v20h3v-1.1c0.3,0.3,0.7,0.6,1.3,1
		c0.6,0.2,1.1,0.3,1.5,0.3c0.8,0,1.5-0.3,2-0.8c0.5-0.7,0.7-1.5,0.7-2.4v-8.2c0-1.1-0.2-2.1-0.7-2.8C58.9,58.2,58.2,58,57.4,58z
		 M54.7,60.8c0.1-0.1,0.2-0.2,0.3-0.2c0.1,0,0.2-0.1,0.3-0.2c0.2,0,0.3,0,0.4-0.1c0,0,0.2-0.1,0.4-0.1c0.4,0,0.7,0.1,0.8,0.4
		c0.2,0.2,0.3,0.6,0.3,1.1v7.6c0,0.6,0,0.9-0.1,1c-0.3,0.3-0.6,0.4-0.8,0.4c-0.2,0-0.3,0-0.4-0.1c0,0-0.2-0.1-0.4-0.1
		c-0.2-0.1-0.4-0.3-0.7-0.6V60.8z M57.8,46.1c0,0.8,0.2,1.5,0.6,2.1c0.4,0.6,1,0.8,1.8,0.8c0.5,0,1.1-0.2,1.8-0.6
		c0.4-0.2,0.7-0.4,1.1-0.6c0.3-0.2,0.6-0.5,0.9-0.9v1.8h3.4V32.5H64v12.4c-0.3,0.4-0.6,0.7-1,0.8c-0.5,0.3-0.8,0.4-1,0.4
		c-0.3,0-0.5-0.1-0.7-0.3c-0.1-0.1-0.1-0.4-0.1-0.8V32.5h-3.4V46.1z M70.5,62c0-1.2-0.4-2.3-1.1-3.2c-0.8-0.8-1.8-1.1-3.1-1.1
		c-1.3,0-2.4,0.4-3.2,1.3c-0.8,0.8-1.3,1.9-1.3,3.1v6.6c0,1.3,0.4,2.4,1.1,3.4c0.8,0.8,1.9,1.3,3.1,1.3c1.5,0,2.6-0.4,3.4-1.1
		c0.8-0.9,1.1-2.1,1.1-3.5V68h-3.1v0.7c0,0.9-0.1,1.5-0.3,1.7c-0.2,0.2-0.5,0.3-1,0.3c-0.6,0-0.9-0.1-1-0.4
		c-0.2-0.2-0.3-0.7-0.3-1.5v-2.8h5.6V62z M65.1,60.6c0.2-0.2,0.5-0.3,1-0.3c0.5,0,0.8,0.1,1,0.3c0.2,0.4,0.3,0.8,0.3,1.4v1.4h-2.5
		V62C64.9,61.3,65,60.8,65.1,60.6z"/>
</g>
</svg>
